<svg width="18" height="19" viewBox="0 0 18 19" fill="none" xmlns="http://www.w3.org/2000/svg">
<path d="M14.0625 9.04878H8.54625M5.2755 9.04878H3.9375M5.2755 9.04878C5.2755 8.61515 5.44776 8.19928 5.75438 7.89266C6.061 7.58604 6.47687 7.41378 6.9105 7.41378C7.34413 7.41378 7.76 7.58604 8.06662 7.89266C8.37324 8.19928 8.5455 8.61515 8.5455 9.04878C8.5455 9.48241 8.37324 9.89827 8.06662 10.2049C7.76 10.5115 7.34413 10.6838 6.9105 10.6838C6.47687 10.6838 6.061 10.5115 5.75438 10.2049C5.44776 9.89827 5.2755 9.48241 5.2755 9.04878ZM14.0625 14.004H12.7515M12.7515 14.004C12.7515 14.4378 12.5788 14.8541 12.2721 15.1608C11.9654 15.4675 11.5495 15.6398 11.1158 15.6398C10.6821 15.6398 10.2663 15.4668 9.95963 15.1601C9.65301 14.8535 9.48075 14.4377 9.48075 14.004M12.7515 14.004C12.7515 13.5703 12.5788 13.1547 12.2721 12.848C11.9654 12.5413 11.5495 12.369 11.1158 12.369C10.6821 12.369 10.2663 12.5413 9.95963 12.8479C9.65301 13.1545 9.48075 13.5704 9.48075 14.004M9.48075 14.004H3.9375M14.0625 4.09353H12.4838M9.213 4.09353H3.9375M9.213 4.09353C9.213 3.6599 9.38526 3.24403 9.69188 2.93741C9.9985 2.63078 10.4144 2.45853 10.848 2.45853C11.0627 2.45853 11.2753 2.50082 11.4737 2.58298C11.6721 2.66515 11.8523 2.78558 12.0041 2.93741C12.1559 3.08923 12.2764 3.26947 12.3585 3.46784C12.4407 3.66621 12.483 3.87882 12.483 4.09353C12.483 4.30824 12.4407 4.52085 12.3585 4.71921C12.2764 4.91758 12.1559 5.09782 12.0041 5.24965C11.8523 5.40147 11.6721 5.5219 11.4737 5.60407C11.2753 5.68624 11.0627 5.72853 10.848 5.72853C10.4144 5.72853 9.9985 5.55627 9.69188 5.24965C9.38526 4.94302 9.213 4.52716 9.213 4.09353Z" stroke="white" stroke-width="1.125" stroke-miterlimit="10" stroke-linecap="round"/>
</svg>
