<svg width="19" height="19" viewBox="0 0 19 19" fill="none" xmlns="http://www.w3.org/2000/svg">
<path d="M14.2461 17.4238C13.5598 17.4238 12.5959 17.1756 11.1523 16.3691C9.397 15.3847 8.03926 14.4759 6.2934 12.7346C4.61012 11.0524 3.79098 9.96327 2.64454 7.8771C1.34938 5.52163 1.57016 4.28694 1.81696 3.75925C2.11086 3.12854 2.54469 2.75132 3.10543 2.3769C3.42393 2.16823 3.76098 1.98935 4.11231 1.84253C4.14746 1.82741 4.18016 1.813 4.20934 1.79999C4.38336 1.72159 4.64704 1.60311 4.98102 1.72968C5.20391 1.81335 5.40289 1.98456 5.71438 2.29218C6.35317 2.92218 7.2261 4.32526 7.54813 5.01432C7.76434 5.47874 7.90743 5.7853 7.90778 6.12913C7.90778 6.53167 7.70528 6.8421 7.45954 7.17714C7.41348 7.24007 7.36778 7.30018 7.32348 7.35854C7.05594 7.7101 6.99723 7.81171 7.0359 7.99311C7.1143 8.35768 7.69895 9.44296 8.65977 10.4017C9.62059 11.3604 10.6746 11.9081 11.0406 11.9862C11.2297 12.0266 11.3334 11.9654 11.6962 11.6884C11.7482 11.6487 11.8017 11.6075 11.8576 11.5664C12.2323 11.2876 12.5284 11.0904 12.9214 11.0904H12.9235C13.2656 11.0904 13.5584 11.2387 14.0436 11.4834C14.6764 11.8026 16.1217 12.6643 16.7556 13.3038C17.0639 13.6146 17.2358 13.8129 17.3198 14.0354C17.4464 14.3705 17.3272 14.6331 17.2495 14.8089C17.2365 14.838 17.2221 14.87 17.207 14.9055C17.059 15.2562 16.879 15.5926 16.6694 15.9103C16.2957 16.4693 15.9171 16.9021 15.285 17.1963C14.9604 17.3499 14.6051 17.4276 14.2461 17.4238Z" fill="#C2C4C8"/>
</svg>
