<svg width="20" height="21" viewBox="0 0 20 21" fill="none" xmlns="http://www.w3.org/2000/svg">
<path d="M5.83333 16.3821C5.83333 16.8241 5.65774 17.2481 5.34518 17.5606C5.03262 17.8732 4.60869 18.0488 4.16667 18.0488C3.72464 18.0488 3.30072 17.8732 2.98816 17.5606C2.67559 17.2481 2.5 16.8241 2.5 16.3821C2.5 15.9401 2.67559 15.5162 2.98816 15.2036C3.30072 14.891 3.72464 14.7154 4.16667 14.7154C4.60869 14.7154 5.03262 14.891 5.34518 15.2036C5.65774 15.5162 5.83333 15.9401 5.83333 16.3821ZM5.83333 16.3821H8.33333C8.77536 16.3821 9.19928 16.2065 9.51184 15.894C9.8244 15.5814 10 15.1575 10 14.7154V8.04878C10 7.60675 10.1756 7.18283 10.4882 6.87027C10.8007 6.55771 11.2246 6.38211 11.6667 6.38211H17.5" stroke="#C2C4C8" stroke-width="1.66667" stroke-linecap="round" stroke-linejoin="round"/>
<path d="M15 3.88211L17.5 6.38211L15 8.88211" stroke="#C2C4C8" stroke-width="1.66667" stroke-linecap="round" stroke-linejoin="round"/>
</svg>
