<svg width="20" height="21" viewBox="0 0 20 21" fill="none" xmlns="http://www.w3.org/2000/svg">
<path d="M18.4596 8.74867L17.4679 6.26951C17.3838 6.05964 17.2385 5.8799 17.0509 5.75359C16.8634 5.62729 16.6422 5.56025 16.4161 5.56117H13.9667V4.99451C13.9667 4.84422 13.907 4.70008 13.8007 4.59381C13.6944 4.48754 13.5503 4.42784 13.4 4.42784C13.2497 4.42784 13.1056 4.48754 12.9993 4.59381C12.893 4.70008 12.8333 4.84422 12.8333 4.99451V9.52784H2.06667C1.91638 9.52784 1.77224 9.58754 1.66597 9.69381C1.5597 9.80008 1.5 9.94421 1.5 10.0945V13.4945C1.5 13.7951 1.6194 14.0833 1.83195 14.2959C2.04449 14.5084 2.33275 14.6278 2.63333 14.6278H3.8375C3.96234 15.1154 4.2459 15.5476 4.64347 15.8562C5.04105 16.1648 5.53003 16.3323 6.03333 16.3323C6.53663 16.3323 7.02561 16.1648 7.42319 15.8562C7.82077 15.5476 8.10433 15.1154 8.22916 14.6278H11.7708C11.8957 15.1154 12.1792 15.5476 12.5768 15.8562C12.9744 16.1648 13.4634 16.3323 13.9667 16.3323C14.47 16.3323 14.9589 16.1648 15.3565 15.8562C15.7541 15.5476 16.0377 15.1154 16.1625 14.6278H17.3667C17.6672 14.6278 17.9555 14.5084 18.168 14.2959C18.3806 14.0833 18.5 13.7951 18.5 13.4945V8.96117C18.5005 8.88839 18.4868 8.8162 18.4596 8.74867ZM6.03333 15.1945C5.80918 15.1945 5.59006 15.128 5.40368 15.0035C5.21731 14.879 5.07205 14.702 4.98627 14.4949C4.90049 14.2878 4.87804 14.0599 4.92177 13.8401C4.9655 13.6202 5.07344 13.4183 5.23194 13.2598C5.39044 13.1013 5.59238 12.9933 5.81223 12.9496C6.03207 12.9059 6.25995 12.9283 6.46704 13.0141C6.67413 13.0999 6.85113 13.2451 6.97566 13.4315C7.10019 13.6179 7.16666 13.837 7.16666 14.0612C7.16666 14.3617 7.04726 14.65 6.83472 14.8626C6.62218 15.0751 6.33391 15.1945 6.03333 15.1945ZM13.9667 15.1945C13.7425 15.1945 13.5234 15.128 13.337 15.0035C13.1506 14.879 13.0054 14.702 12.9196 14.4949C12.8338 14.2878 12.8114 14.0599 12.8551 13.8401C12.8988 13.6202 13.0068 13.4183 13.1653 13.2598C13.3238 13.1013 13.5257 12.9933 13.7456 12.9496C13.9654 12.9059 14.1933 12.9283 14.4004 13.0141C14.6075 13.0999 14.7845 13.2451 14.909 13.4315C15.0335 13.6179 15.1 13.837 15.1 14.0612C15.1 14.3617 14.9806 14.65 14.768 14.8626C14.5555 15.0751 14.2672 15.1945 13.9667 15.1945ZM13.9667 8.3945V6.69451H16.4161L17.0961 8.3945H13.9667ZM2.06667 7.26117C1.91638 7.26117 1.77224 7.32087 1.66597 7.42714C1.5597 7.53342 1.5 7.67755 1.5 7.82784C1.5 7.97813 1.5597 8.12226 1.66597 8.22853C1.77224 8.3348 1.91638 8.3945 2.06667 8.3945H11.1333C11.2836 8.3945 11.4278 8.3348 11.534 8.22853C11.6403 8.12226 11.7 7.97813 11.7 7.82784C11.7 7.67755 11.6403 7.53342 11.534 7.42714C11.4278 7.32087 11.2836 7.26117 11.1333 7.26117H9.99999V5.56117H11.1333C11.2836 5.56117 11.4278 5.50147 11.534 5.3952C11.6403 5.28893 11.7 5.1448 11.7 4.99451C11.7 4.84422 11.6403 4.70008 11.534 4.59381C11.4278 4.48754 11.2836 4.42784 11.1333 4.42784H2.06667C1.91638 4.42784 1.77224 4.48754 1.66597 4.59381C1.5597 4.70008 1.5 4.84422 1.5 4.99451C1.5 5.1448 1.5597 5.28893 1.66597 5.3952C1.77224 5.50147 1.91638 5.56117 2.06667 5.56117H3.2V7.26117H2.06667ZM7.16666 5.56117H8.86666V7.26117H7.16666V5.56117ZM4.33333 5.56117H6.03333V7.26117H4.33333V5.56117Z" fill="#FF8C22"/>
</svg>
