<svg width="84" height="38" viewBox="0 0 84 38" fill="none" xmlns="http://www.w3.org/2000/svg">
<rect x="0.75" y="1.29877" width="82.5" height="35.5" rx="17.75" fill="#FF8C22"/>
<rect x="0.75" y="1.29877" width="82.5" height="35.5" rx="17.75" stroke="#FF8C22" stroke-width="1.5"/>
<path d="M30.4596 17.7487L29.4679 15.2695C29.3838 15.0596 29.2385 14.8799 29.0509 14.7536C28.8634 14.6273 28.6422 14.5603 28.4161 14.5612H25.9667V13.9945C25.9667 13.8442 25.907 13.7001 25.8007 13.5938C25.6944 13.4875 25.5503 13.4278 25.4 13.4278C25.2497 13.4278 25.1056 13.4875 24.9993 13.5938C24.893 13.7001 24.8333 13.8442 24.8333 13.9945V18.5278H14.0667C13.9164 18.5278 13.7722 18.5875 13.666 18.6938C13.5597 18.8001 13.5 18.9442 13.5 19.0945V22.4945C13.5 22.7951 13.6194 23.0833 13.8319 23.2959C14.0445 23.5084 14.3328 23.6278 14.6333 23.6278H15.8375C15.9623 24.1154 16.2459 24.5476 16.6435 24.8562C17.0411 25.1648 17.53 25.3323 18.0333 25.3323C18.5366 25.3323 19.0256 25.1648 19.4232 24.8562C19.8208 24.5476 20.1043 24.1154 20.2292 23.6278H23.7708C23.8957 24.1154 24.1792 24.5476 24.5768 24.8562C24.9744 25.1648 25.4634 25.3323 25.9667 25.3323C26.47 25.3323 26.9589 25.1648 27.3565 24.8562C27.7541 24.5476 28.0377 24.1154 28.1625 23.6278H29.3667C29.6672 23.6278 29.9555 23.5084 30.168 23.2959C30.3806 23.0833 30.5 22.7951 30.5 22.4945V17.9612C30.5005 17.8884 30.4868 17.8162 30.4596 17.7487ZM18.0333 24.1945C17.8092 24.1945 17.5901 24.128 17.4037 24.0035C17.2173 23.879 17.072 23.702 16.9863 23.4949C16.9005 23.2878 16.878 23.0599 16.9218 22.8401C16.9655 22.6202 17.0734 22.4183 17.2319 22.2598C17.3904 22.1013 17.5924 21.9933 17.8122 21.9496C18.0321 21.9059 18.2599 21.9283 18.467 22.0141C18.6741 22.0999 18.8511 22.2451 18.9757 22.4315C19.1002 22.6179 19.1667 22.837 19.1667 23.0612C19.1667 23.3617 19.0473 23.65 18.8347 23.8626C18.6222 24.0751 18.3339 24.1945 18.0333 24.1945ZM25.9667 24.1945C25.7425 24.1945 25.5234 24.128 25.337 24.0035C25.1506 23.879 25.0054 23.702 24.9196 23.4949C24.8338 23.2878 24.8114 23.0599 24.8551 22.8401C24.8988 22.6202 25.0068 22.4183 25.1653 22.2598C25.3238 22.1013 25.5257 21.9933 25.7456 21.9496C25.9654 21.9059 26.1933 21.9283 26.4004 22.0141C26.6075 22.0999 26.7845 22.2451 26.909 22.4315C27.0335 22.6179 27.1 22.837 27.1 23.0612C27.1 23.3617 26.9806 23.65 26.768 23.8626C26.5555 24.0751 26.2672 24.1945 25.9667 24.1945ZM25.9667 17.3945V15.6945H28.4161L29.0961 17.3945H25.9667ZM14.0667 16.2612C13.9164 16.2612 13.7722 16.3209 13.666 16.4271C13.5597 16.5334 13.5 16.6775 13.5 16.8278C13.5 16.9781 13.5597 17.1223 13.666 17.2285C13.7722 17.3348 13.9164 17.3945 14.0667 17.3945H23.1333C23.2836 17.3945 23.4278 17.3348 23.534 17.2285C23.6403 17.1223 23.7 16.9781 23.7 16.8278C23.7 16.6775 23.6403 16.5334 23.534 16.4271C23.4278 16.3209 23.2836 16.2612 23.1333 16.2612H22V14.5612H23.1333C23.2836 14.5612 23.4278 14.5015 23.534 14.3952C23.6403 14.2889 23.7 14.1448 23.7 13.9945C23.7 13.8442 23.6403 13.7001 23.534 13.5938C23.4278 13.4875 23.2836 13.4278 23.1333 13.4278H14.0667C13.9164 13.4278 13.7722 13.4875 13.666 13.5938C13.5597 13.7001 13.5 13.8442 13.5 13.9945C13.5 14.1448 13.5597 14.2889 13.666 14.3952C13.7722 14.5015 13.9164 14.5612 14.0667 14.5612H15.2V16.2612H14.0667ZM19.1667 14.5612H20.8667V16.2612H19.1667V14.5612ZM16.3333 14.5612H18.0333V16.2612H16.3333V14.5612Z" fill="white"/>
<path d="M46.6621 23.1523H35.4512V22.0859H40.3594V19.1738H41.6445V22.0859H46.6621V23.1523ZM35.834 18.3261C36.6133 18.1939 37.3447 17.9205 38.0283 17.5058C38.7165 17.0911 39.2679 16.5898 39.6826 16.0019C40.0973 15.4094 40.3047 14.7988 40.3047 14.1699V13.2402H41.6719V14.1699C41.6719 14.7988 41.8792 15.4094 42.2939 16.0019C42.7132 16.5898 43.2669 17.0911 43.9551 17.5058C44.6478 17.9205 45.3861 18.1939 46.1699 18.3261L45.6094 19.3925C44.944 19.2604 44.3083 19.0416 43.7021 18.7363C43.1006 18.4309 42.5651 18.0527 42.0957 17.6015C41.6263 17.1458 41.2594 16.6445 40.9951 16.0976C40.7308 16.6445 40.3639 17.1435 39.8945 17.5947C39.4297 18.0458 38.8965 18.4264 38.2949 18.7363C37.6979 19.0416 37.069 19.2604 36.4082 19.3925L35.834 18.3261ZM53.0846 20.0898C53.9232 20.0898 54.6455 20.1809 55.2516 20.3632C55.8623 20.5455 56.3294 20.8098 56.653 21.1562C56.9811 21.498 57.1452 21.9081 57.1452 22.3867C57.1452 22.8697 56.9811 23.2844 56.653 23.6308C56.3294 23.9817 55.8623 24.2483 55.2516 24.4306C54.6455 24.6175 53.9232 24.7109 53.0846 24.7109C52.237 24.7109 51.5032 24.6175 50.8834 24.4306C50.2682 24.2483 49.7942 23.9817 49.4616 23.6308C49.1334 23.2844 48.9694 22.8697 48.9694 22.3867C48.9694 21.9081 49.1334 21.498 49.4616 21.1562C49.7942 20.8098 50.2682 20.5455 50.8834 20.3632C51.5032 20.1809 52.237 20.0898 53.0846 20.0898ZM47.8893 13.2265H49.1608V14.9902H52.3737V13.2265H53.6588V18.914H47.8893V13.2265ZM52.3737 17.8749V16.0156H49.1608V17.8749H52.3737ZM50.2682 22.3867C50.2636 22.7968 50.5097 23.1135 51.0065 23.3369C51.5032 23.5602 52.1959 23.6718 53.0846 23.6718C53.9687 23.6718 54.6546 23.5602 55.1422 23.3369C55.6344 23.1135 55.8782 22.7968 55.8737 22.3867C55.8782 21.9811 55.6344 21.6689 55.1422 21.4501C54.6546 21.2268 53.9687 21.1152 53.0846 21.1152C52.1959 21.1152 51.5032 21.2268 51.0065 21.4501C50.5097 21.6689 50.2636 21.9811 50.2682 22.3867ZM55.737 12.4609H57.0358V15.455H58.8131V16.5624H57.0358V19.7753H55.737V12.4609ZM63.7864 15.5781C63.7864 16.3209 63.9163 17.0501 64.1761 17.7656C64.4404 18.4765 64.8095 19.1077 65.2835 19.6591C65.7574 20.2106 66.302 20.623 66.9173 20.8964L66.1243 21.9355C65.4407 21.5891 64.8414 21.0901 64.3264 20.4384C63.8115 19.7822 63.4173 19.0302 63.1438 18.1826C62.8704 19.0803 62.4716 19.8801 61.9475 20.582C61.428 21.2792 60.8196 21.8079 60.1223 22.1679L59.302 21.1152C59.9218 20.8189 60.471 20.3814 60.9495 19.8027C61.4326 19.2193 61.8063 18.5585 62.0706 17.8203C62.3395 17.0774 62.4739 16.33 62.4739 15.5781V13.4863H63.7864V15.5781ZM65.5637 16.5351H68.2981V12.4609H69.5833V24.7382H68.2981V17.5878H65.5637V16.5351Z" fill="white"/>
</svg>
