<svg width="40" height="40" viewBox="0 0 40 40" fill="none" xmlns="http://www.w3.org/2000/svg">
<rect width="40" height="40" rx="20" fill="#FF8C22"/>
<path d="M30.1515 18.4399L28.9615 15.4649C28.8605 15.2131 28.6861 14.9974 28.461 14.8458C28.236 14.6943 27.9706 14.6138 27.6992 14.6149H24.7599V13.9349C24.7599 13.7546 24.6883 13.5816 24.5608 13.4541C24.4332 13.3266 24.2603 13.2549 24.0799 13.2549C23.8996 13.2549 23.7266 13.3266 23.5991 13.4541C23.4716 13.5816 23.3999 13.7546 23.3999 13.9349V19.3749H10.4799C10.2996 19.3749 10.1266 19.4466 9.99909 19.5741C9.87157 19.7016 9.79993 19.8746 9.79993 20.0549V24.1349C9.79993 24.4956 9.94321 24.8415 10.1983 25.0966C10.4533 25.3516 10.7992 25.4949 11.1599 25.4949H12.6049C12.7547 26.08 13.095 26.5986 13.5721 26.9689C14.0492 27.3392 14.636 27.5402 15.2399 27.5402C15.8439 27.5402 16.4307 27.3392 16.9078 26.9689C17.3848 26.5986 17.7251 26.08 17.8749 25.4949H22.1249C22.2747 26.08 22.615 26.5986 23.0921 26.9689C23.5692 27.3392 24.156 27.5402 24.7599 27.5402C25.3639 27.5402 25.9507 27.3392 26.4277 26.9689C26.9048 26.5986 27.2451 26.08 27.3949 25.4949H28.8399C29.2006 25.4949 29.5465 25.3516 29.8016 25.0966C30.0566 24.8415 30.1999 24.4956 30.1999 24.1349V18.6949C30.2005 18.6076 30.184 18.521 30.1515 18.4399ZM15.2399 26.1749C14.9709 26.1749 14.708 26.0951 14.4843 25.9457C14.2607 25.7963 14.0864 25.5839 13.9834 25.3354C13.8805 25.0869 13.8536 24.8134 13.9061 24.5496C13.9585 24.2858 14.0881 24.0434 14.2783 23.8532C14.4685 23.663 14.7108 23.5335 14.9746 23.481C15.2384 23.4286 15.5119 23.4555 15.7604 23.5584C16.0089 23.6614 16.2213 23.8357 16.3707 24.0593C16.5202 24.283 16.5999 24.5459 16.5999 24.8149C16.5999 25.1756 16.4566 25.5215 16.2016 25.7766C15.9465 26.0316 15.6006 26.1749 15.2399 26.1749ZM24.7599 26.1749C24.4909 26.1749 24.228 26.0951 24.0043 25.9457C23.7807 25.7963 23.6064 25.5839 23.5034 25.3354C23.4005 25.0869 23.3736 24.8134 23.4261 24.5496C23.4785 24.2858 23.6081 24.0434 23.7983 23.8532C23.9885 23.663 24.2308 23.5335 24.4946 23.481C24.7584 23.4286 25.0319 23.4555 25.2804 23.5584C25.5289 23.6614 25.7413 23.8357 25.8907 24.0593C26.0402 24.283 26.1199 24.5459 26.1199 24.8149C26.1199 25.1756 25.9766 25.5215 25.7216 25.7766C25.4665 26.0316 25.1206 26.1749 24.7599 26.1749ZM24.7599 18.0149V15.9749H27.6992L28.5152 18.0149H24.7599ZM10.4799 16.6549C10.2996 16.6549 10.1266 16.7266 9.99909 16.8541C9.87157 16.9816 9.79993 17.1546 9.79993 17.3349C9.79993 17.5153 9.87157 17.6882 9.99909 17.8157C10.1266 17.9433 10.2996 18.0149 10.4799 18.0149H21.3599C21.5403 18.0149 21.7132 17.9433 21.8408 17.8157C21.9683 17.6882 22.0399 17.5153 22.0399 17.3349C22.0399 17.1546 21.9683 16.9816 21.8408 16.8541C21.7132 16.7266 21.5403 16.6549 21.3599 16.6549H19.9999V14.6149H21.3599C21.5403 14.6149 21.7132 14.5433 21.8408 14.4158C21.9683 14.2882 22.0399 14.1153 22.0399 13.9349C22.0399 13.7546 21.9683 13.5816 21.8408 13.4541C21.7132 13.3266 21.5403 13.2549 21.3599 13.2549H10.4799C10.2996 13.2549 10.1266 13.3266 9.99909 13.4541C9.87157 13.5816 9.79993 13.7546 9.79993 13.9349C9.79993 14.1153 9.87157 14.2882 9.99909 14.4158C10.1266 14.5433 10.2996 14.6149 10.4799 14.6149H11.8399V16.6549H10.4799ZM16.5999 14.6149H18.6399V16.6549H16.5999V14.6149ZM13.1999 14.6149H15.2399V16.6549H13.1999V14.6149Z" fill="white"/>
</svg>
