<svg width="24" height="25" viewBox="0 0 24 25" fill="none" xmlns="http://www.w3.org/2000/svg">
<g clip-path="url(#clip0_169_2991)">
<path d="M21.0001 7.54883C21.2653 7.54883 21.5196 7.65419 21.7072 7.84172C21.8947 8.02926 22.0001 8.28361 22.0001 8.54883C22.0001 8.81404 21.8947 9.0684 21.7072 9.25593C21.5196 9.44347 21.2653 9.54883 21.0001 9.54883V19.5488C21.2653 19.5488 21.5196 19.6542 21.7072 19.8417C21.8947 20.0293 22.0001 20.2836 22.0001 20.5488C22.0001 20.814 21.8947 21.0684 21.7072 21.2559C21.5196 21.4435 21.2653 21.5488 21.0001 21.5488H3.00006C2.73484 21.5488 2.48049 21.4435 2.29295 21.2559C2.10542 21.0684 2.00006 20.814 2.00006 20.5488C2.00006 20.2836 2.10542 20.0293 2.29295 19.8417C2.48049 19.6542 2.73484 19.5488 3.00006 19.5488V9.54883C2.73484 9.54883 2.48049 9.44347 2.29295 9.25593C2.10542 9.0684 2.00006 8.81404 2.00006 8.54883C2.00006 8.28361 2.10542 8.02926 2.29295 7.84172C2.48049 7.65419 2.73484 7.54883 3.00006 7.54883H21.0001ZM7.00006 11.5488C6.73484 11.5488 6.48049 11.6542 6.29295 11.8417C6.10542 12.0293 6.00006 12.2836 6.00006 12.5488V19.5488H8.00006V12.5488C8.00006 12.2836 7.8947 12.0293 7.70717 11.8417C7.51963 11.6542 7.26528 11.5488 7.00006 11.5488ZM12.0001 11.5488C11.7348 11.5488 11.4805 11.6542 11.293 11.8417C11.1054 12.0293 11.0001 12.2836 11.0001 12.5488V19.5488H13.0001V12.5488C13.0001 12.2836 12.8947 12.0293 12.7072 11.8417C12.5196 11.6542 12.2653 11.5488 12.0001 11.5488ZM17.0001 11.5488C16.7348 11.5488 16.4805 11.6542 16.293 11.8417C16.1054 12.0293 16.0001 12.2836 16.0001 12.5488V19.5488H18.0001V12.5488C18.0001 12.2836 17.8947 12.0293 17.7072 11.8417C17.5196 11.6542 17.2653 11.5488 17.0001 11.5488ZM18.0001 4.54883C18.2653 4.54883 18.5196 4.65419 18.7072 4.84172C18.8947 5.02926 19.0001 5.28361 19.0001 5.54883C19.0001 5.81404 18.8947 6.0684 18.7072 6.25593C18.5196 6.44347 18.2653 6.54883 18.0001 6.54883H6.00006C5.73484 6.54883 5.48049 6.44347 5.29295 6.25593C5.10542 6.0684 5.00006 5.81404 5.00006 5.54883C5.00006 5.28361 5.10542 5.02926 5.29295 4.84172C5.48049 4.65419 5.73484 4.54883 6.00006 4.54883H18.0001Z" fill="#85CBB2"/>
<path d="M18 4.54883C18.2652 4.54883 18.5196 4.65419 18.7071 4.84172C18.8946 5.02926 19 5.28361 19 5.54883C19 5.81404 18.8946 6.0684 18.7071 6.25593C18.5196 6.44347 18.2652 6.54883 18 6.54883H6C5.73478 6.54883 5.48043 6.44347 5.29289 6.25593C5.10536 6.0684 5 5.81404 5 5.54883C5 5.28361 5.10536 5.02926 5.29289 4.84172C5.48043 4.65419 5.73478 4.54883 6 4.54883H18Z" fill="#51B491"/>
<path d="M21.0071 19.5558C21.2723 19.5558 21.5267 19.6611 21.7142 19.8487C21.9018 20.0362 22.0071 20.2906 22.0071 20.5558C22.0071 20.821 21.9018 21.0754 21.7142 21.2629C21.5267 21.4504 21.2723 21.5558 21.0071 21.5558H3.00995C2.74473 21.5558 2.49038 21.4504 2.30284 21.2629C2.11531 21.0754 2.00995 20.821 2.00995 20.5558C2.00995 20.2906 2.11531 20.0362 2.30284 19.8487C2.49038 19.6611 2.74473 19.5558 3.00995 19.5558H21.0071Z" fill="#51B491"/>
</g>
<defs>
<clipPath id="clip0_169_2991">
<rect width="24" height="24" fill="white" transform="translate(0 0.548828)"/>
</clipPath>
</defs>
</svg>
