<svg width="40" height="40" viewBox="0 0 40 40" fill="none" xmlns="http://www.w3.org/2000/svg">
<rect x="0.5" y="0.5" width="39" height="39" rx="19.5" fill="white"/>
<rect x="0.5" y="0.5" width="39" height="39" rx="19.5" stroke="#EAEBEC"/>
<path d="M15.4609 13.3021H20.4193C21.4036 13.3021 22.2422 13.4874 22.9349 13.8581C23.6337 14.2287 24.1623 14.7452 24.5208 15.4076C24.8793 16.0638 25.0616 16.8203 25.0677 17.6771C25.0616 18.5278 24.8763 19.2813 24.5117 19.9375C24.1532 20.5938 23.6215 21.1072 22.9167 21.4779C22.2179 21.8485 21.3733 22.0339 20.3828 22.0339H17.8307V26.5H15.4609V13.3021ZM20.0547 20.0833C20.9175 20.0773 21.5647 19.8585 21.9961 19.4271C22.4275 18.9896 22.6432 18.4063 22.6432 17.6771C22.6432 16.9418 22.4275 16.3615 21.9961 15.9362C21.5647 15.5048 20.9175 15.2891 20.0547 15.2891H17.8307V20.0833H20.0547Z" fill="#878A93"/>
</svg>
