<svg width="338" height="75" viewBox="0 0 338 75" fill="none" xmlns="http://www.w3.org/2000/svg">
<g filter="url(#filter0_d_131_929)">
<rect x="10" y="10" width="318" height="55" rx="27.5" fill="#5A5C63" shape-rendering="crispEdges"/>
<path d="M39.0039 33.4004C39.0039 33.8835 39.1292 34.3483 39.3799 34.7949C39.6351 35.237 39.9974 35.6289 40.4668 35.9707C40.9362 36.3079 41.4831 36.5632 42.1074 36.7363L41.4922 37.748C40.7767 37.543 40.1523 37.2285 39.6191 36.8047C39.0859 36.3809 38.6758 35.8796 38.3887 35.3008C38.1107 35.9388 37.7028 36.4925 37.165 36.9619C36.6318 37.4313 36.0007 37.7799 35.2715 38.0078L34.6562 37.0098C35.2715 36.8138 35.8092 36.5312 36.2695 36.1621C36.7344 35.793 37.0898 35.3714 37.3359 34.8975C37.582 34.4189 37.7051 33.9199 37.7051 33.4004V33.3184H34.9844V32.2793H37.7051V30.8574H39.0176V32.2793H41.7109V33.3184H39.0039V33.4004ZM36.5566 38.7324H44.6094V43.0117H36.5566V38.7324ZM43.3379 41.959V39.7852H37.8418V41.959H43.3379ZM43.3105 30.9258H44.6094V38.1582H43.3105V30.9258ZM52.6862 31.9922C52.6862 32.5254 52.8821 33.0381 53.2741 33.5303C53.6705 34.0225 54.2037 34.4417 54.8737 34.7881C55.5482 35.1344 56.2819 35.36 57.0748 35.4648L56.569 36.5312C55.9036 36.4264 55.2724 36.2441 54.6754 35.9844C54.0784 35.7246 53.5498 35.4033 53.0895 35.0205C52.6338 34.6331 52.2737 34.2025 52.0094 33.7285C51.7451 34.2025 51.3828 34.6331 50.9225 35.0205C50.4668 35.4033 49.9427 35.7246 49.3502 35.9844C48.7578 36.2396 48.1289 36.4219 47.4635 36.5312L46.944 35.4648C47.737 35.36 48.4684 35.1367 49.1383 34.7949C49.8082 34.4531 50.3414 34.0361 50.7379 33.5439C51.1344 33.0472 51.3327 32.5299 51.3327 31.9922V31.3223H52.6862V31.9922ZM46.4108 37.7344H57.5807V38.8008H52.6041V43.1621H51.3327V38.8008H46.4108V37.7344ZM67.9954 34.4531H69.7864V35.5332H67.9954V39.7715H66.6966V30.8984H67.9954V34.4531ZM58.9173 31.9512H64.386V33.0039H60.2024V36.5723H60.4827C61.622 36.5723 62.5563 36.5449 63.2854 36.4902C64.0192 36.4355 64.746 36.3353 65.4661 36.1895L65.6165 37.2422C64.8098 37.4017 63.9918 37.5111 63.1624 37.5703C62.333 37.625 61.2415 37.6523 59.888 37.6523H58.9173V31.9512ZM60.2298 38.8555H61.5286V41.8496H68.5149V42.9023H60.2298V38.8555ZM80.8573 43.1621H79.6269V30.9121H80.8573V43.1621ZM70.2616 39.6211C71.5377 38.8646 72.5061 37.9782 73.1669 36.9619C73.8323 35.9411 74.2219 34.7858 74.3359 33.4961H70.8632V32.4297H75.621C75.621 33.054 75.5732 33.6647 75.4775 34.2617H77.1249V31.2266H78.3554V42.5605H77.1249V38.3906H75.0331V37.3242H77.1249V35.3281H75.2382C74.6047 37.5156 73.2011 39.2565 71.0273 40.5508L70.2616 39.6211Z" fill="white"/>
<rect x="94" y="26" width="40" height="22" rx="6" fill="#FF5253"/>
<path d="M107.521 31.9766C108.044 31.9766 108.513 32.0684 108.927 32.252C109.341 32.4316 109.665 32.6875 109.9 33.0195C110.134 33.3516 110.251 33.7305 110.251 34.1562C110.251 34.5781 110.134 34.9551 109.9 35.2871C109.665 35.6191 109.341 35.877 108.927 36.0605C108.513 36.2402 108.044 36.3281 107.521 36.3242C107.001 36.3281 106.535 36.2402 106.121 36.0605C105.71 35.877 105.39 35.6191 105.16 35.2871C104.929 34.9551 104.814 34.5781 104.814 34.1562C104.814 33.7305 104.929 33.3516 105.16 33.0195C105.39 32.6875 105.71 32.4316 106.121 32.252C106.535 32.0684 107.001 31.9766 107.521 31.9766ZM104.064 37.1445C105.326 37.1445 106.537 37.1191 107.697 37.0684C108.861 37.0137 109.955 36.9102 110.978 36.7578L111.06 37.5898C110.173 37.7578 109.201 37.877 108.142 37.9473V41.668H107.029V38.0117C106.365 38.043 105.427 38.0625 104.216 38.0703L104.064 37.1445ZM105.892 34.1562C105.888 34.4062 105.955 34.627 106.091 34.8184C106.232 35.0098 106.425 35.1582 106.671 35.2637C106.921 35.3652 107.205 35.4141 107.521 35.4102C107.845 35.4141 108.132 35.3652 108.382 35.2637C108.636 35.1582 108.833 35.0098 108.974 34.8184C109.115 34.627 109.185 34.4062 109.185 34.1562C109.185 33.9023 109.115 33.6797 108.974 33.4883C108.833 33.293 108.636 33.1426 108.382 33.0371C108.132 32.9316 107.845 32.8789 107.521 32.8789C107.205 32.8789 106.921 32.9316 106.671 33.0371C106.425 33.1426 106.232 33.293 106.091 33.4883C105.955 33.6836 105.888 33.9062 105.892 34.1562ZM111.705 31.5078H112.806V41.9961H111.705V31.5078ZM123.081 37.8594H121.967V35.5742H120.327V34.6484H121.967V31.4961H123.081V37.8594ZM114.338 32.5391H116.87V31.4023H117.971V32.5391H120.491V33.4297H114.338V32.5391ZM114.948 35.7852C114.948 35.4219 115.053 35.0996 115.264 34.8184C115.475 34.5332 115.768 34.3105 116.143 34.1504C116.518 33.9902 116.944 33.9102 117.42 33.9102C117.897 33.9102 118.321 33.9902 118.692 34.1504C119.067 34.3066 119.358 34.5273 119.565 34.8125C119.776 35.0977 119.881 35.4219 119.881 35.7852C119.881 36.1562 119.776 36.4844 119.565 36.7695C119.358 37.0547 119.067 37.2773 118.692 37.4375C118.321 37.5938 117.897 37.6719 117.42 37.6719C116.944 37.6719 116.518 37.5938 116.143 37.4375C115.768 37.2773 115.475 37.0547 115.264 36.7695C115.053 36.4844 114.948 36.1562 114.948 35.7852ZM116.014 35.7852C116.014 36.1016 116.143 36.3535 116.401 36.541C116.659 36.7285 116.999 36.8242 117.42 36.8281C117.694 36.8281 117.936 36.7852 118.147 36.6992C118.358 36.6133 118.522 36.4922 118.639 36.3359C118.756 36.1797 118.815 35.9961 118.815 35.7852C118.815 35.5859 118.756 35.4102 118.639 35.2578C118.526 35.1016 118.364 34.9805 118.153 34.8945C117.946 34.8086 117.708 34.7656 117.438 34.7656C117.157 34.7656 116.909 34.8086 116.694 34.8945C116.479 34.9766 116.311 35.0957 116.19 35.252C116.073 35.4043 116.014 35.582 116.014 35.7852ZM116.155 38.375H123.081V41.8672H116.155V38.375ZM121.991 40.9648V39.2539H117.256V40.9648H121.991Z" fill="white"/>
<rect x="140" y="26" width="40" height="22" rx="6" fill="#FF8C22"/>
<path d="M158.83 37.7188H157.716V36.4414H155.068V35.5273H157.716V34.25H155.179C154.843 35.0859 154.29 35.8008 153.521 36.3945C152.751 36.9883 151.794 37.4492 150.65 37.7773L150.205 36.9102C151.443 36.5586 152.415 36.0605 153.123 35.416C153.833 34.7715 154.24 34.0234 154.341 33.1719H150.744V32.2578H155.548C155.548 32.6289 155.511 33 155.437 33.3711H157.716V31.5078H158.83V37.7188ZM151.833 39.8867C151.833 39.4688 151.978 39.1055 152.267 38.7969C152.556 38.4883 152.966 38.252 153.498 38.0879C154.033 37.9199 154.658 37.8359 155.373 37.8359C156.08 37.8359 156.699 37.9199 157.23 38.0879C157.761 38.252 158.171 38.4883 158.46 38.7969C158.753 39.1055 158.9 39.4688 158.9 39.8867C158.9 40.3086 158.753 40.6758 158.46 40.9883C158.171 41.2969 157.761 41.5332 157.23 41.6973C156.699 41.8652 156.08 41.9492 155.373 41.9492C154.658 41.9492 154.033 41.8652 153.498 41.6973C152.966 41.5332 152.556 41.2969 152.267 40.9883C151.978 40.6758 151.833 40.3086 151.833 39.8867ZM152.935 39.8867C152.935 40.1289 153.033 40.3379 153.228 40.5137C153.427 40.6895 153.708 40.8242 154.072 40.918C154.439 41.0117 154.873 41.0586 155.373 41.0586C155.861 41.0586 156.287 41.0117 156.65 40.918C157.013 40.8242 157.292 40.6895 157.488 40.5137C157.687 40.3379 157.787 40.1289 157.787 39.8867C157.787 39.6406 157.689 39.4297 157.494 39.2539C157.298 39.0781 157.021 38.9453 156.662 38.8555C156.306 38.7617 155.886 38.7148 155.402 38.7148C154.632 38.7148 154.029 38.8164 153.591 39.0195C153.154 39.2227 152.935 39.5117 152.935 39.8867ZM168.823 33.5352C168.819 34.1406 168.809 34.6582 168.794 35.0879C168.782 35.5137 168.747 36.0117 168.688 36.582C168.633 37.1523 168.545 37.7695 168.424 38.4336L167.299 38.3164C167.424 37.6875 167.516 37.0957 167.575 36.541C167.633 35.9824 167.669 35.4902 167.68 35.0645C167.696 34.6387 167.706 34.1289 167.71 33.5352V33.4062H161.335V32.5039H168.823V33.5352ZM160.327 39.6523H163.971V35.9492H165.073V39.6523H169.901V40.5781H160.327V39.6523Z" fill="white"/>
<rect x="186" y="26" width="40" height="22" rx="6" fill="#FFCE22"/>
<path d="M205.65 38.3164H201.384V41.9844H200.294V38.3164H196.076V37.4141H205.65V38.3164ZM196.615 35.7383C197.263 35.6484 197.861 35.4707 198.408 35.2051C198.958 34.9355 199.398 34.6074 199.726 34.2207C200.054 33.834 200.224 33.4297 200.236 33.0078H196.966V32.1172H204.748V33.0078H201.501C201.505 33.4297 201.669 33.834 201.994 34.2207C202.322 34.6074 202.761 34.9355 203.312 35.2051C203.863 35.4707 204.466 35.6484 205.123 35.7383L204.712 36.6172C204.138 36.5273 203.597 36.377 203.089 36.166C202.581 35.9512 202.136 35.6855 201.753 35.3691C201.371 35.0488 201.074 34.6934 200.863 34.3027C200.652 34.6934 200.355 35.0488 199.972 35.3691C199.589 35.6855 199.146 35.9512 198.642 36.166C198.138 36.377 197.603 36.5273 197.037 36.6172L196.615 35.7383ZM209.749 32.2461C210.295 32.2461 210.786 32.3516 211.219 32.5625C211.653 32.7695 211.993 33.0645 212.239 33.4473C212.485 33.8262 212.608 34.2578 212.608 34.7422C212.608 35.2266 212.485 35.6602 212.239 36.043C211.993 36.4219 211.653 36.7188 211.219 36.9336C210.786 37.1445 210.295 37.25 209.749 37.25C209.202 37.25 208.71 37.1445 208.272 36.9336C207.838 36.7188 207.499 36.4219 207.253 36.043C207.01 35.6602 206.889 35.2266 206.889 34.7422C206.889 34.2578 207.01 33.8262 207.253 33.4473C207.499 33.0684 207.838 32.7734 208.272 32.5625C208.71 32.3516 209.202 32.2461 209.749 32.2461ZM206.385 38.832C207.706 38.832 208.924 38.8105 210.042 38.7676C211.159 38.7246 212.225 38.6289 213.241 38.4805L213.323 39.2891C212.276 39.4922 211.211 39.6211 210.129 39.6758C209.051 39.7305 207.85 39.7578 206.526 39.7578L206.385 38.832ZM207.991 34.7422C207.987 35.0469 208.059 35.3164 208.208 35.5508C208.36 35.7812 208.569 35.9609 208.835 36.0898C209.104 36.2148 209.409 36.2773 209.749 36.2773C210.088 36.2773 210.391 36.2148 210.657 36.0898C210.926 35.9609 211.137 35.7812 211.29 35.5508C211.442 35.3164 211.518 35.0469 211.518 34.7422C211.518 34.4414 211.442 34.1758 211.29 33.9453C211.137 33.7109 210.926 33.5293 210.657 33.4004C210.387 33.2715 210.085 33.207 209.749 33.207C209.409 33.207 209.104 33.2715 208.835 33.4004C208.569 33.5293 208.36 33.7109 208.208 33.9453C208.059 34.1758 207.987 34.4414 207.991 34.7422ZM213.897 31.4961H215.01V42.0195H213.897V31.4961Z" fill="white"/>
<rect x="232" y="26" width="40" height="22" rx="6" fill="#51B491"/>
<path d="M250.326 34.625H251.849V35.5625H250.326V39.207H249.212V31.4844H250.326V34.625ZM242.24 34.8242C242.236 34.3242 242.355 33.877 242.597 33.4824C242.843 33.084 243.179 32.7734 243.605 32.5508C244.031 32.3242 244.505 32.2109 245.029 32.2109C245.552 32.2109 246.027 32.3242 246.453 32.5508C246.878 32.7734 247.212 33.084 247.455 33.4824C247.701 33.877 247.826 34.3242 247.83 34.8242C247.826 35.3242 247.701 35.7734 247.455 36.1719C247.212 36.5703 246.878 36.8809 246.453 37.1035C246.027 37.3262 245.552 37.4375 245.029 37.4375C244.505 37.4375 244.031 37.3262 243.605 37.1035C243.179 36.8809 242.843 36.5703 242.597 36.1719C242.355 35.7734 242.236 35.3242 242.24 34.8242ZM243.33 34.8242C243.326 35.1445 243.398 35.4297 243.546 35.6797C243.695 35.9258 243.898 36.1191 244.156 36.2598C244.417 36.3965 244.708 36.4648 245.029 36.4648C245.349 36.4648 245.638 36.3965 245.896 36.2598C246.158 36.1191 246.363 35.9258 246.511 35.6797C246.664 35.4297 246.74 35.1445 246.74 34.8242C246.74 34.5039 246.664 34.2207 246.511 33.9746C246.363 33.7246 246.158 33.5312 245.896 33.3945C245.638 33.2539 245.349 33.1836 245.029 33.1836C244.708 33.1836 244.417 33.2539 244.156 33.3945C243.898 33.5312 243.695 33.7246 243.546 33.9746C243.398 34.2207 243.326 34.5039 243.33 34.8242ZM243.669 38.3984H244.783V40.8711H250.771V41.7734H243.669V38.3984ZM261.081 39.1953H259.967V35.2461H257.963V34.3438H259.967V31.5078H261.081V39.1953ZM252.338 37.0039C252.866 36.8242 253.327 36.5625 253.721 36.2188C254.12 35.8711 254.424 35.4727 254.635 35.0234C254.846 34.5742 254.952 34.1094 254.952 33.6289V33.2188H252.678V32.3047H258.338V33.2188H256.088V33.6289C256.085 34.0664 256.184 34.4941 256.387 34.9121C256.594 35.3301 256.889 35.7031 257.272 36.0312C257.655 36.3594 258.104 36.6094 258.62 36.7812L258.045 37.6719C257.467 37.4688 256.963 37.168 256.534 36.7695C256.104 36.3711 255.772 35.9062 255.538 35.375C255.307 35.9609 254.965 36.4746 254.512 36.916C254.063 37.3574 253.53 37.6875 252.913 37.9062L252.338 37.0039ZM254.26 38.5039H255.374V40.8711H261.362V41.7734H254.26V38.5039Z" fill="white"/>
<mask id="mask0_131_929" style="mask-type:alpha" maskUnits="userSpaceOnUse" x="284" y="26" width="20" height="20">
<rect x="284" y="26" width="20" height="20" fill="#D9D9D9"/>
</mask>
<g mask="url(#mask0_131_929)">
<path d="M294 37.0625L290.583 40.4792C290.431 40.6319 290.257 40.7049 290.063 40.6979C289.868 40.691 289.694 40.6111 289.542 40.4583C289.389 40.3055 289.313 40.1285 289.313 39.9271C289.313 39.7257 289.389 39.5486 289.542 39.3958L292.938 36L289.521 32.5833C289.368 32.4305 289.295 32.2535 289.302 32.0521C289.309 31.8507 289.389 31.6736 289.542 31.5208C289.694 31.368 289.872 31.2917 290.073 31.2917C290.274 31.2917 290.451 31.368 290.604 31.5208L294 34.9375L297.417 31.5208C297.569 31.368 297.747 31.2917 297.948 31.2917C298.149 31.2917 298.326 31.368 298.479 31.5208C298.632 31.6736 298.708 31.8507 298.708 32.0521C298.708 32.2535 298.632 32.4305 298.479 32.5833L295.063 36L298.479 39.4167C298.632 39.5694 298.708 39.743 298.708 39.9375C298.708 40.1319 298.632 40.3055 298.479 40.4583C298.326 40.6111 298.149 40.6875 297.948 40.6875C297.747 40.6875 297.569 40.6111 297.417 40.4583L294 37.0625Z" fill="#E1E2E4"/>
</g>
</g>
<defs>
<filter id="filter0_d_131_929" x="0" y="0" width="338" height="75" filterUnits="userSpaceOnUse" color-interpolation-filters="sRGB">
<feFlood flood-opacity="0" result="BackgroundImageFix"/>
<feColorMatrix in="SourceAlpha" type="matrix" values="0 0 0 0 0 0 0 0 0 0 0 0 0 0 0 0 0 0 127 0" result="hardAlpha"/>
<feOffset/>
<feGaussianBlur stdDeviation="5"/>
<feComposite in2="hardAlpha" operator="out"/>
<feColorMatrix type="matrix" values="0 0 0 0 0.682353 0 0 0 0 0.690196 0 0 0 0 0.713726 0 0 0 0.25 0"/>
<feBlend mode="normal" in2="BackgroundImageFix" result="effect1_dropShadow_131_929"/>
<feBlend mode="normal" in="SourceGraphic" in2="effect1_dropShadow_131_929" result="shape"/>
</filter>
</defs>
</svg>
