<svg width="131" height="86" viewBox="0 0 131 86" fill="none" xmlns="http://www.w3.org/2000/svg">
<rect x="3" width="125" height="38" rx="8" fill="#FF5253"/>
<g clip-path="url(#clip0_129_6564)">
<path d="M20 16.75C19.4033 16.75 18.831 16.9871 18.409 17.409C17.9871 17.831 17.75 18.4033 17.75 19C17.75 19.5967 17.9871 20.169 18.409 20.591C18.831 21.0129 19.4033 21.25 20 21.25C20.5967 21.25 21.169 21.0129 21.591 20.591C22.0129 20.169 22.25 19.5967 22.25 19C22.25 18.4033 22.0129 17.831 21.591 17.409C21.169 16.9871 20.5967 16.75 20 16.75Z" fill="white"/>
<path fill-rule="evenodd" clip-rule="evenodd" d="M20 10.9375C20.1492 10.9375 20.2923 10.9968 20.3977 11.1023C20.5032 11.2077 20.5625 11.3508 20.5625 11.5V12.4615C22.103 12.594 23.5472 13.2662 24.6405 14.3595C25.7338 15.4528 26.406 16.897 26.5385 18.4375H27.5C27.6492 18.4375 27.7923 18.4968 27.8977 18.6023C28.0032 18.7077 28.0625 18.8508 28.0625 19C28.0625 19.1492 28.0032 19.2923 27.8977 19.3977C27.7923 19.5032 27.6492 19.5625 27.5 19.5625H26.5385C26.406 21.103 25.7338 22.5472 24.6405 23.6405C23.5472 24.7338 22.103 25.406 20.5625 25.5385V26.5C20.5625 26.6492 20.5032 26.7923 20.3977 26.8977C20.2923 27.0032 20.1492 27.0625 20 27.0625C19.8508 27.0625 19.7077 27.0032 19.6023 26.8977C19.4968 26.7923 19.4375 26.6492 19.4375 26.5V25.5385C17.897 25.406 16.4528 24.7338 15.3595 23.6405C14.2662 22.5472 13.594 21.103 13.4615 19.5625H12.5C12.3508 19.5625 12.2077 19.5032 12.1023 19.3977C11.9968 19.2923 11.9375 19.1492 11.9375 19C11.9375 18.8508 11.9968 18.7077 12.1023 18.6023C12.2077 18.4968 12.3508 18.4375 12.5 18.4375H13.4615C13.594 16.897 14.2662 15.4528 15.3595 14.3595C16.4528 13.2662 17.897 12.594 19.4375 12.4615V11.5C19.4375 11.3508 19.4968 11.2077 19.6023 11.1023C19.7077 10.9968 19.8508 10.9375 20 10.9375ZM14.5625 19C14.5625 19.7141 14.7031 20.4211 14.9764 21.0808C15.2497 21.7405 15.6502 22.34 16.1551 22.8449C16.66 23.3498 17.2595 23.7503 17.9192 24.0236C18.5789 24.2969 19.2859 24.4375 20 24.4375C20.7141 24.4375 21.4211 24.2969 22.0808 24.0236C22.7405 23.7503 23.34 23.3498 23.8449 22.8449C24.3498 22.34 24.7503 21.7405 25.0236 21.0808C25.2969 20.4211 25.4375 19.7141 25.4375 19C25.4375 17.5579 24.8646 16.1748 23.8449 15.1551C22.8252 14.1354 21.4421 13.5625 20 13.5625C18.5579 13.5625 17.1748 14.1354 16.1551 15.1551C15.1354 16.1748 14.5625 17.5579 14.5625 19Z" fill="white"/>
</g>
<path d="M44.5938 26.3906H42.9219V19.25H41.3594V25.6719H39.7344V12.5312H41.3594V17.8281H42.9219V12.2656H44.5938V26.3906ZM33.0781 13.8906H34.8281V21.3438C36.2083 21.3177 37.5521 21.1771 38.8594 20.9219L39.0312 22.4375C37.375 22.7292 35.7031 22.875 34.0156 22.875H33.0781V13.8906ZM54.3831 12.8906C55.0915 12.8906 55.7269 13.0156 56.2894 13.2656C56.8519 13.5104 57.292 13.8594 57.6097 14.3125C57.9274 14.7604 58.0863 15.276 58.0863 15.8594C58.0863 16.4323 57.9274 16.9427 57.6097 17.3906C57.292 17.8385 56.8519 18.1875 56.2894 18.4375C55.7269 18.6875 55.0915 18.8125 54.3831 18.8125C53.68 18.8125 53.0498 18.6875 52.4925 18.4375C51.9352 18.1875 51.4977 17.8385 51.18 17.3906C50.8675 16.9427 50.7113 16.4323 50.7113 15.8594C50.7113 15.276 50.8675 14.7604 51.18 14.3125C51.4977 13.8594 51.9352 13.5104 52.4925 13.2656C53.0498 13.0156 53.68 12.8906 54.3831 12.8906ZM49.7894 19.7812C51.4769 19.7812 53.0863 19.75 54.6175 19.6875C56.1488 19.6198 57.5915 19.4844 58.9456 19.2812L59.0706 20.5625C57.956 20.776 56.7165 20.9349 55.3519 21.0391V25.9531H53.6019V21.1406C52.6071 21.1823 51.4092 21.2083 50.0081 21.2188L49.7894 19.7812ZM52.3988 15.8594C52.3988 16.1667 52.4821 16.4375 52.6488 16.6719C52.8154 16.901 53.0472 17.0781 53.3441 17.2031C53.6409 17.3281 53.9795 17.3906 54.3597 17.3906C54.7607 17.3906 55.1175 17.3307 55.43 17.2109C55.7477 17.0859 55.9925 16.9089 56.1644 16.6797C56.3415 16.4453 56.43 16.1719 56.43 15.8594C56.43 15.5417 56.3441 15.263 56.1722 15.0234C56.0003 14.7839 55.7581 14.6016 55.4456 14.4766C55.1383 14.3516 54.7842 14.2917 54.3831 14.2969C53.9977 14.2917 53.654 14.3516 53.3519 14.4766C53.0498 14.6016 52.8154 14.7839 52.6488 15.0234C52.4821 15.263 52.3988 15.5417 52.3988 15.8594ZM59.8675 12.2812H61.5863V26.375H59.8675V12.2812ZM75.1763 26.3906H73.4419V12.2656H75.1763V26.3906ZM63.5825 22.375C64.3117 22.0521 64.9445 21.5938 65.4809 21C66.0174 20.4062 66.4263 19.7396 66.7075 19C66.9888 18.2604 67.1294 17.5104 67.1294 16.75V16.0156H64.02V14.625H67.1294V12.5625H68.8481V14.625H71.895V16.0156H68.8638V16.75C68.8585 17.474 68.9992 18.1927 69.2856 18.9062C69.5721 19.6198 69.9861 20.263 70.5278 20.8359C71.0747 21.4089 71.7179 21.849 72.4575 22.1562L71.5044 23.4844C70.7075 23.1458 70.0096 22.6458 69.4106 21.9844C68.8117 21.3229 68.3481 20.5573 68.02 19.6875C67.6971 20.6094 67.2335 21.4245 66.6294 22.1328C66.0304 22.8359 65.3273 23.3646 64.52 23.7188L63.5825 22.375Z" fill="white"/>
<rect x="85" y="8" width="33" height="22" rx="6" fill="white"/>
<path d="M95.0209 13.9766C95.5444 13.9766 96.0131 14.0684 96.4272 14.252C96.8413 14.4316 97.1655 14.6875 97.3998 15.0195C97.6342 15.3516 97.7514 15.7305 97.7514 16.1562C97.7514 16.5781 97.6342 16.9551 97.3998 17.2871C97.1655 17.6191 96.8413 17.877 96.4272 18.0605C96.0131 18.2402 95.5444 18.3281 95.0209 18.3242C94.5014 18.3281 94.0346 18.2402 93.6205 18.0605C93.2104 17.877 92.8901 17.6191 92.6596 17.2871C92.4291 16.9551 92.3139 16.5781 92.3139 16.1562C92.3139 15.7305 92.4291 15.3516 92.6596 15.0195C92.8901 14.6875 93.2104 14.4316 93.6205 14.252C94.0346 14.0684 94.5014 13.9766 95.0209 13.9766ZM91.5639 19.1445C92.8256 19.1445 94.0366 19.1191 95.1967 19.0684C96.3608 19.0137 97.4545 18.9102 98.478 18.7578L98.56 19.5898C97.6733 19.7578 96.7006 19.877 95.642 19.9473V23.668H94.5288V20.0117C93.8647 20.043 92.9272 20.0625 91.7163 20.0703L91.5639 19.1445ZM93.392 16.1562C93.3881 16.4062 93.4545 16.627 93.5913 16.8184C93.7319 17.0098 93.9252 17.1582 94.1713 17.2637C94.4213 17.3652 94.7045 17.4141 95.0209 17.4102C95.3452 17.4141 95.6323 17.3652 95.8823 17.2637C96.1362 17.1582 96.3334 17.0098 96.4741 16.8184C96.6147 16.627 96.685 16.4062 96.685 16.1562C96.685 15.9023 96.6147 15.6797 96.4741 15.4883C96.3334 15.293 96.1362 15.1426 95.8823 15.0371C95.6323 14.9316 95.3452 14.8789 95.0209 14.8789C94.7045 14.8789 94.4213 14.9316 94.1713 15.0371C93.9252 15.1426 93.7319 15.293 93.5913 15.4883C93.4545 15.6836 93.3881 15.9062 93.392 16.1562ZM99.2045 13.5078H100.306V23.9961H99.2045V13.5078ZM110.581 19.8594H109.467V17.5742H107.827V16.6484H109.467V13.4961H110.581V19.8594ZM101.838 14.5391H104.37V13.4023H105.471V14.5391H107.991V15.4297H101.838V14.5391ZM102.448 17.7852C102.448 17.4219 102.553 17.0996 102.764 16.8184C102.975 16.5332 103.268 16.3105 103.643 16.1504C104.018 15.9902 104.444 15.9102 104.92 15.9102C105.397 15.9102 105.821 15.9902 106.192 16.1504C106.567 16.3066 106.858 16.5273 107.065 16.8125C107.276 17.0977 107.381 17.4219 107.381 17.7852C107.381 18.1562 107.276 18.4844 107.065 18.7695C106.858 19.0547 106.567 19.2773 106.192 19.4375C105.821 19.5938 105.397 19.6719 104.92 19.6719C104.444 19.6719 104.018 19.5938 103.643 19.4375C103.268 19.2773 102.975 19.0547 102.764 18.7695C102.553 18.4844 102.448 18.1562 102.448 17.7852ZM103.514 17.7852C103.514 18.1016 103.643 18.3535 103.901 18.541C104.159 18.7285 104.499 18.8242 104.92 18.8281C105.194 18.8281 105.436 18.7852 105.647 18.6992C105.858 18.6133 106.022 18.4922 106.139 18.3359C106.256 18.1797 106.315 17.9961 106.315 17.7852C106.315 17.5859 106.256 17.4102 106.139 17.2578C106.026 17.1016 105.864 16.9805 105.653 16.8945C105.446 16.8086 105.208 16.7656 104.938 16.7656C104.657 16.7656 104.409 16.8086 104.194 16.8945C103.979 16.9766 103.811 17.0957 103.69 17.252C103.573 17.4043 103.514 17.582 103.514 17.7852ZM103.655 20.375H110.581V23.8672H103.655V20.375ZM109.491 22.9648V21.2539H104.756V22.9648H109.491Z" fill="#FF5253"/>
<rect x="44.5" y="44" width="42" height="42" rx="21" fill="white" fill-opacity="0.3"/>
<rect x="46" y="45.5" width="39" height="39" rx="19.5" fill="#476DE0" fill-opacity="0.4"/>
<rect x="56" y="55.5" width="19" height="19" rx="9.5" fill="white"/>
<circle cx="65.5" cy="65" r="8" fill="#476DE0"/>
<defs>
<clipPath id="clip0_129_6564">
<rect width="18" height="18" fill="white" transform="translate(11 10)"/>
</clipPath>
</defs>
</svg>
