<svg width="67" height="67" viewBox="0 0 67 67" fill="none" xmlns="http://www.w3.org/2000/svg">
<g filter="url(#filter0_d_131_939)">
<rect x="10" y="10" width="47" height="47" rx="23.5" fill="white" shape-rendering="crispEdges"/>
<rect x="10.5" y="10.5" width="46" height="46" rx="23" stroke="#F7F7F8" shape-rendering="crispEdges"/>
<path d="M33.5 30.5C32.7044 30.5 31.9413 30.8161 31.3787 31.3787C30.8161 31.9413 30.5 32.7044 30.5 33.5C30.5 34.2956 30.8161 35.0587 31.3787 35.6213C31.9413 36.1839 32.7044 36.5 33.5 36.5C34.2956 36.5 35.0587 36.1839 35.6213 35.6213C36.1839 35.0587 36.5 34.2956 36.5 33.5C36.5 32.7044 36.1839 31.9413 35.6213 31.3787C35.0587 30.8161 34.2956 30.5 33.5 30.5Z" fill="#878A93"/>
<path fill-rule="evenodd" clip-rule="evenodd" d="M33.5 22.75C33.6989 22.75 33.8897 22.829 34.0303 22.9697C34.171 23.1103 34.25 23.3011 34.25 23.5V24.782C36.304 24.9587 38.2296 25.8549 39.6874 27.3126C41.1451 28.7704 42.0413 30.696 42.218 32.75H43.5C43.6989 32.75 43.8897 32.829 44.0303 32.9697C44.171 33.1103 44.25 33.3011 44.25 33.5C44.25 33.6989 44.171 33.8897 44.0303 34.0303C43.8897 34.171 43.6989 34.25 43.5 34.25H42.218C42.0413 36.304 41.1451 38.2296 39.6874 39.6874C38.2296 41.1451 36.304 42.0413 34.25 42.218V43.5C34.25 43.6989 34.171 43.8897 34.0303 44.0303C33.8897 44.171 33.6989 44.25 33.5 44.25C33.3011 44.25 33.1103 44.171 32.9697 44.0303C32.829 43.8897 32.75 43.6989 32.75 43.5V42.218C30.696 42.0413 28.7704 41.1451 27.3126 39.6874C25.8549 38.2296 24.9587 36.304 24.782 34.25H23.5C23.3011 34.25 23.1103 34.171 22.9697 34.0303C22.829 33.8897 22.75 33.6989 22.75 33.5C22.75 33.3011 22.829 33.1103 22.9697 32.9697C23.1103 32.829 23.3011 32.75 23.5 32.75H24.782C24.9587 30.696 25.8549 28.7704 27.3126 27.3126C28.7704 25.8549 30.696 24.9587 32.75 24.782V23.5C32.75 23.3011 32.829 23.1103 32.9697 22.9697C33.1103 22.829 33.3011 22.75 33.5 22.75ZM26.25 33.5C26.25 34.4521 26.4375 35.3948 26.8019 36.2745C27.1662 37.1541 27.7003 37.9533 28.3735 38.6265C29.0467 39.2997 29.8459 39.8338 30.7255 40.1981C31.6052 40.5625 32.5479 40.75 33.5 40.75C34.4521 40.75 35.3948 40.5625 36.2745 40.1981C37.1541 39.8338 37.9533 39.2997 38.6265 38.6265C39.2997 37.9533 39.8338 37.1541 40.1981 36.2745C40.5625 35.3948 40.75 34.4521 40.75 33.5C40.75 31.5772 39.9862 29.7331 38.6265 28.3735C37.2669 27.0138 35.4228 26.25 33.5 26.25C31.5772 26.25 29.7331 27.0138 28.3735 28.3735C27.0138 29.7331 26.25 31.5772 26.25 33.5Z" fill="#878A93"/>
</g>
<defs>
<filter id="filter0_d_131_939" x="0" y="0" width="67" height="67" filterUnits="userSpaceOnUse" color-interpolation-filters="sRGB">
<feFlood flood-opacity="0" result="BackgroundImageFix"/>
<feColorMatrix in="SourceAlpha" type="matrix" values="0 0 0 0 0 0 0 0 0 0 0 0 0 0 0 0 0 0 127 0" result="hardAlpha"/>
<feOffset/>
<feGaussianBlur stdDeviation="5"/>
<feComposite in2="hardAlpha" operator="out"/>
<feColorMatrix type="matrix" values="0 0 0 0 0.682353 0 0 0 0 0.690196 0 0 0 0 0.713726 0 0 0 0.25 0"/>
<feBlend mode="normal" in2="BackgroundImageFix" result="effect1_dropShadow_131_939"/>
<feBlend mode="normal" in="SourceGraphic" in2="effect1_dropShadow_131_939" result="shape"/>
</filter>
</defs>
</svg>
