<svg width="40" height="40" viewBox="0 0 40 40" fill="none" xmlns="http://www.w3.org/2000/svg">
<rect width="40" height="40" rx="20" fill="#476DE0"/>
<path d="M20.0001 8.6C19.5307 8.6 19.1501 8.98056 19.1501 9.45V10.3C19.1501 10.7694 19.5307 11.15 20.0001 11.15C20.4695 11.15 20.8501 10.7694 20.8501 10.3V9.45C20.8501 8.98056 20.4695 8.6 20.0001 8.6ZM17.0974 10.4403C16.766 10.109 16.2292 10.108 15.8967 10.4381C15.5626 10.7699 15.5616 11.31 15.8946 11.643L16.4981 12.2465C16.8311 12.5795 17.3712 12.5785 17.703 12.2444C18.0331 11.9119 18.0321 11.375 17.7008 11.0437L17.0974 10.4403ZM24.1049 10.4438C23.772 10.1109 23.2322 10.1109 22.8993 10.4438L22.3001 11.043C21.9684 11.3747 21.9674 11.9122 22.2979 12.2451C22.6296 12.579 23.1692 12.5806 23.5028 12.2486L24.1035 11.6508C24.4377 11.3181 24.4384 10.7773 24.1049 10.4438ZM20.0001 12.85C19.5492 12.85 19.1168 13.0291 18.798 13.3479C18.4792 13.6667 18.3001 14.0991 18.3001 14.55V15.4H15.3251C14.7641 15.4 14.2881 15.757 14.1181 16.25L12.3501 21.35V28.15C12.3501 28.3754 12.4397 28.5916 12.5991 28.751C12.7585 28.9104 12.9747 29 13.2001 29H14.0501C14.2755 29 14.4917 28.9104 14.6511 28.751C14.8105 28.5916 14.9001 28.3754 14.9001 28.15V27.3H25.1001V28.15C25.1001 28.3754 25.1896 28.5916 25.3491 28.751C25.5085 28.9104 25.7247 29 25.9501 29H26.8001C27.0255 29 27.2417 28.9104 27.4011 28.751C27.5605 28.5916 27.6501 28.3754 27.6501 28.15V21.35L25.8821 16.25C25.7121 15.757 25.2361 15.4 24.6751 15.4H21.7001V14.55C21.7001 14.0991 21.521 13.6667 21.2022 13.3479C20.8834 13.0291 20.451 12.85 20.0001 12.85ZM15.3251 16.675H24.6751L25.9501 20.5H14.0501L15.3251 16.675ZM15.3251 22.2C15.6632 22.2 15.9876 22.3343 16.2267 22.5734C16.4658 22.8125 16.6001 23.1368 16.6001 23.475C16.6001 23.8131 16.4658 24.1374 16.2267 24.3766C15.9876 24.6157 15.6632 24.75 15.3251 24.75C14.9869 24.75 14.6626 24.6157 14.4235 24.3766C14.1844 24.1374 14.0501 23.8131 14.0501 23.475C14.0501 23.1368 14.1844 22.8125 14.4235 22.5734C14.6626 22.3343 14.9869 22.2 15.3251 22.2ZM24.6751 22.2C25.0132 22.2 25.3375 22.3343 25.5767 22.5734C25.8158 22.8125 25.9501 23.1368 25.9501 23.475C25.9501 23.8131 25.8158 24.1374 25.5767 24.3766C25.3375 24.6157 25.0132 24.75 24.6751 24.75C24.3369 24.75 24.0126 24.6157 23.7735 24.3766C23.5344 24.1374 23.4001 23.8131 23.4001 23.475C23.4001 23.1368 23.5344 22.8125 23.7735 22.5734C24.0126 22.3343 24.3369 22.2 24.6751 22.2Z" fill="white"/>
</svg>
