<svg width="20" height="21" viewBox="0 0 20 21" fill="none" xmlns="http://www.w3.org/2000/svg">
<g clip-path="url(#clip0_122_1060)">
<path d="M10 0.548752C9.6088 0.548752 9.29167 0.865884 9.29167 1.25709V1.96542C9.29167 2.35662 9.6088 2.67375 10 2.67375C10.3912 2.67375 10.7083 2.35662 10.7083 1.96542V1.25709C10.7083 0.865884 10.3912 0.548752 10 0.548752ZM7.58104 2.0823C7.30496 1.80621 6.85758 1.80542 6.58053 2.08053C6.30208 2.35701 6.30129 2.80712 6.57875 3.08459L7.08166 3.5875C7.35913 3.86497 7.80924 3.86417 8.08572 3.58572C8.36083 3.30867 8.36004 2.86129 8.08396 2.58521L7.58104 2.0823ZM13.4207 2.08524C13.1432 1.80782 12.6934 1.80782 12.416 2.08524L11.9166 2.58462C11.6402 2.86103 11.6394 3.30893 11.9149 3.58632C12.1912 3.86463 12.6409 3.86595 12.9189 3.58927L13.4195 3.09107C13.698 2.81384 13.6985 2.36313 13.4207 2.08524ZM10 4.09042C9.62428 4.09042 9.26394 4.23967 8.99827 4.50535C8.73259 4.77103 8.58333 5.13136 8.58333 5.50708V6.21542H6.10417C5.63667 6.21542 5.24 6.51292 5.09833 6.92375L3.625 11.1738V16.8404C3.625 17.0283 3.69963 17.2084 3.83247 17.3413C3.9653 17.4741 4.14547 17.5488 4.33333 17.5488H5.04167C5.22953 17.5488 5.4097 17.4741 5.54253 17.3413C5.67537 17.2084 5.75 17.0283 5.75 16.8404V16.1321H14.25V16.8404C14.25 17.0283 14.3246 17.2084 14.4575 17.3413C14.5903 17.4741 14.7705 17.5488 14.9583 17.5488H15.6667C15.8545 17.5488 16.0347 17.4741 16.1675 17.3413C16.3004 17.2084 16.375 17.0283 16.375 16.8404V11.1738L14.9017 6.92375C14.76 6.51292 14.3633 6.21542 13.8958 6.21542H11.4167V5.50708C11.4167 5.13136 11.2674 4.77103 11.0017 4.50535C10.7361 4.23967 10.3757 4.09042 10 4.09042ZM6.10417 7.27792H13.8958L14.9583 10.4654H5.04167L6.10417 7.27792ZM6.10417 11.8821C6.38596 11.8821 6.65621 11.994 6.85547 12.1933C7.05473 12.3925 7.16667 12.6628 7.16667 12.9446C7.16667 13.2264 7.05473 13.4966 6.85547 13.6959C6.65621 13.8951 6.38596 14.0071 6.10417 14.0071C5.82237 14.0071 5.55212 13.8951 5.35287 13.6959C5.15361 13.4966 5.04167 13.2264 5.04167 12.9446C5.04167 12.6628 5.15361 12.3925 5.35287 12.1933C5.55212 11.994 5.82237 11.8821 6.10417 11.8821ZM13.8958 11.8821C14.1776 11.8821 14.4479 11.994 14.6471 12.1933C14.8464 12.3925 14.9583 12.6628 14.9583 12.9446C14.9583 13.2264 14.8464 13.4966 14.6471 13.6959C14.4479 13.8951 14.1776 14.0071 13.8958 14.0071C13.614 14.0071 13.3438 13.8951 13.1445 13.6959C12.9453 13.4966 12.8333 13.2264 12.8333 12.9446C12.8333 12.6628 12.9453 12.3925 13.1445 12.1933C13.3438 11.994 13.614 11.8821 13.8958 11.8821Z" fill="#476DE0"/>
</g>
<defs>
<clipPath id="clip0_122_1060">
<rect width="20" height="20" fill="white" transform="translate(0 0.0487671)"/>
</clipPath>
</defs>
</svg>
