<svg width="20" height="21" viewBox="0 0 20 21" fill="none" xmlns="http://www.w3.org/2000/svg">
<path d="M17.5 17.5488L13.8808 13.9296M13.8808 13.9296C14.4999 13.3105 14.991 12.5756 15.326 11.7667C15.661 10.9579 15.8335 10.0909 15.8335 9.21544C15.8335 8.33994 15.6611 7.47301 15.326 6.66415C14.991 5.85529 14.4999 5.12034 13.8808 4.50127C13.2617 3.8822 12.5268 3.39112 11.7179 3.05608C10.9091 2.72104 10.0422 2.5486 9.16666 2.5486C8.29115 2.5486 7.42422 2.72104 6.61537 3.05608C5.80651 3.39112 5.07156 3.8822 4.45249 4.50127C3.20221 5.75155 2.49982 7.44728 2.49982 9.21544C2.49982 10.9836 3.20221 12.6793 4.45249 13.9296C5.70276 15.1799 7.3985 15.8823 9.16666 15.8823C10.9348 15.8823 12.6305 15.1799 13.8808 13.9296Z" stroke="#AEB0B6" stroke-width="1.5" stroke-linecap="round" stroke-linejoin="round"/>
</svg>
