<svg width="20" height="21" viewBox="0 0 20 21" fill="none" xmlns="http://www.w3.org/2000/svg">
<path d="M9.00004 3.29876L4.00004 7.04876C3.58337 7.36543 3.33337 7.8571 3.33337 8.3821V15.8821C3.33337 16.7988 4.08337 17.5488 5.00004 17.5488H15C15.9167 17.5488 16.6667 16.7988 16.6667 15.8821V8.3821C16.6667 7.8571 16.4167 7.36543 16 7.04876L11 3.29876C10.711 3.08367 10.3603 2.9675 10 2.9675C9.63976 2.9675 9.28907 3.08367 9.00004 3.29876ZM8.12504 10.4654C8.40131 10.4654 8.66626 10.5752 8.86161 10.7705C9.05696 10.9659 9.16671 11.2308 9.16671 11.5071C9.16671 11.7834 9.05696 12.0483 8.86161 12.2437C8.66626 12.439 8.40131 12.5488 8.12504 12.5488C7.84877 12.5488 7.58382 12.439 7.38847 12.2437C7.19312 12.0483 7.08337 11.7834 7.08337 11.5071C7.08337 11.2308 7.19312 10.9659 7.38847 10.7705C7.58382 10.5752 7.84877 10.4654 8.12504 10.4654ZM13.75 15.0488C13.5167 15.0488 13.3334 14.8654 13.3334 14.6321V13.7988H6.66671V14.6321C6.66671 14.8654 6.48337 15.0488 6.25004 15.0488C6.01671 15.0488 5.83337 14.8654 5.83337 14.6321V9.6321C5.83337 9.39876 6.01671 9.21543 6.25004 9.21543C6.48337 9.21543 6.66671 9.39876 6.66671 9.6321V12.9654H9.58337V10.4654C9.58337 10.2321 9.76671 10.0488 10 10.0488H12.5C13.4167 10.0488 14.1667 10.7988 14.1667 11.7154V14.6321C14.1667 14.8654 13.9834 15.0488 13.75 15.0488Z" fill="#51B491"/>
</svg>
