<svg width="40" height="40" viewBox="0 0 40 40" fill="none" xmlns="http://www.w3.org/2000/svg">
<rect width="40" height="40" rx="20" fill="#51B491"/>
<path d="M18.6284 10.174L11.7703 15.3176C11.1988 15.7519 10.8559 16.4263 10.8559 17.1464V27.4336C10.8559 28.6909 11.8846 29.7196 13.1419 29.7196H26.8582C28.1155 29.7196 29.1442 28.6909 29.1442 27.4336V17.1464C29.1442 16.4263 28.8013 15.7519 28.2298 15.3176L21.3717 10.174C20.9752 9.87893 20.4942 9.71959 20.0001 9.71959C19.5059 9.71959 19.0249 9.87893 18.6284 10.174ZM17.4283 20.0039C17.8072 20.0039 18.1706 20.1545 18.4386 20.4224C18.7065 20.6904 18.857 21.0538 18.857 21.4327C18.857 21.8116 18.7065 22.1751 18.4386 22.443C18.1706 22.7109 17.8072 22.8615 17.4283 22.8615C17.0493 22.8615 16.6859 22.7109 16.418 22.443C16.15 22.1751 15.9995 21.8116 15.9995 21.4327C15.9995 21.0538 16.15 20.6904 16.418 20.4224C16.6859 20.1545 17.0493 20.0039 17.4283 20.0039ZM25.1436 26.2905C24.8236 26.2905 24.5721 26.0391 24.5721 25.719V24.576H15.428V25.719C15.428 26.0391 15.1765 26.2905 14.8565 26.2905C14.5364 26.2905 14.285 26.0391 14.285 25.719V18.8609C14.285 18.5409 14.5364 18.2894 14.8565 18.2894C15.1765 18.2894 15.428 18.5409 15.428 18.8609V23.433H19.4285V20.0039C19.4285 19.6839 19.68 19.4324 20.0001 19.4324H23.4291C24.6864 19.4324 25.7151 20.4611 25.7151 21.7185V25.719C25.7151 26.0391 25.4637 26.2905 25.1436 26.2905Z" fill="white"/>
</svg>
