<svg xmlns="http://www.w3.org/2000/svg" width="22" height="22" viewBox="0 0 22 22" fill="none">
  <path fill-rule="evenodd" clip-rule="evenodd" d="M10.75 0.25C4.813 0.25 0 5.063 0 11C0 12.856 0.471 14.605 1.3 16.13L0.513 20.363C0.490854 20.4826 0.498138 20.6058 0.534225 20.722C0.570311 20.8382 0.634116 20.9438 0.720138 21.0299C0.806159 21.1159 0.911814 21.1797 1.02799 21.2158C1.14417 21.2519 1.26738 21.2591 1.387 21.237L5.62 20.449C7.19408 21.3054 8.95804 21.7527 10.75 21.75C16.687 21.75 21.5 16.937 21.5 11C21.5 5.063 16.687 0.25 10.75 0.25ZM15.75 9.75C15.4185 9.75 15.1005 9.8817 14.8661 10.1161C14.6317 10.3505 14.5 10.6685 14.5 11C14.5 11.3315 14.6317 11.6495 14.8661 11.8839C15.1005 12.1183 15.4185 12.25 15.75 12.25C16.0815 12.25 16.3995 12.1183 16.6339 11.8839C16.8683 11.6495 17 11.3315 17 11C17 10.6685 16.8683 10.3505 16.6339 10.1161C16.3995 9.8817 16.0815 9.75 15.75 9.75ZM9.5 11C9.5 10.6685 9.6317 10.3505 9.86612 10.1161C10.1005 9.8817 10.4185 9.75 10.75 9.75C11.0815 9.75 11.3995 9.8817 11.6339 10.1161C11.8683 10.3505 12 10.6685 12 11C12 11.3315 11.8683 11.6495 11.6339 11.8839C11.3995 12.1183 11.0815 12.25 10.75 12.25C10.4185 12.25 10.1005 12.1183 9.86612 11.8839C9.6317 11.6495 9.5 11.3315 9.5 11ZM5.75 9.75C5.41848 9.75 5.10054 9.8817 4.86612 10.1161C4.6317 10.3505 4.5 10.6685 4.5 11C4.5 11.3315 4.6317 11.6495 4.86612 11.8839C5.10054 12.1183 5.41848 12.25 5.75 12.25C6.08152 12.25 6.39946 12.1183 6.63388 11.8839C6.8683 11.6495 7 11.3315 7 11C7 10.6685 6.8683 10.3505 6.63388 10.1161C6.39946 9.8817 6.08152 9.75 5.75 9.75Z" fill="#476DE0"/>
</svg>