<svg xmlns="http://www.w3.org/2000/svg" width="21" height="23" viewBox="0 0 21 23" fill="none">
  <path d="M17.1702 2.97127C18.9669 4.76779 19.9945 7.19265 20.0357 9.73311C20.0769 12.2736 19.1285 14.7305 17.3909 16.5843L17.1702 16.8126L12.5564 21.4253C11.971 22.0104 11.1851 22.3511 10.3579 22.3783C9.53068 22.4056 8.72404 22.1174 8.10138 21.5721L7.9448 21.4253L3.32992 16.8116C1.49458 14.9762 0.463501 12.487 0.463501 9.89142C0.463501 7.29586 1.49458 4.80661 3.32992 2.97127C5.16525 1.13594 7.6545 0.104858 10.2501 0.104858C12.8456 0.104858 15.3349 1.13594 17.1702 2.97127ZM10.2501 6.62925C9.82166 6.62925 9.39747 6.71363 9.00168 6.87757C8.6059 7.04151 8.24628 7.2818 7.94336 7.58472C7.64044 7.88764 7.40015 8.24726 7.23621 8.64304C7.07227 9.03882 6.98789 9.46302 6.98789 9.89142C6.98789 10.3198 7.07227 10.744 7.23621 11.1398C7.40015 11.5356 7.64044 11.8952 7.94336 12.1981C8.24628 12.501 8.6059 12.7413 9.00168 12.9053C9.39747 13.0692 9.82166 13.1536 10.2501 13.1536C11.1152 13.1536 11.945 12.8099 12.5568 12.1981C13.1685 11.5863 13.5122 10.7566 13.5122 9.89142C13.5122 9.02624 13.1685 8.19649 12.5568 7.58472C11.945 6.97294 11.1152 6.62925 10.2501 6.62925Z" fill="#476DE0"/>
</svg>