<svg xmlns="http://www.w3.org/2000/svg" width="22" height="22" viewBox="0 0 22 22" fill="none">
  <path d="M0.75 11.204C0.75 8.915 0.75 7.771 1.27 6.823C1.788 5.874 2.737 5.286 4.634 4.108L6.634 2.867C8.639 1.622 9.642 1 10.75 1C11.858 1 12.86 1.622 14.866 2.867L16.866 4.108C18.763 5.286 19.712 5.874 20.231 6.823C20.75 7.772 20.75 8.915 20.75 11.203V12.725C20.75 16.625 20.75 18.576 19.578 19.788C18.406 21 16.521 21 12.75 21H8.75C4.979 21 3.093 21 1.922 19.788C0.751 18.576 0.75 16.626 0.75 12.725V11.204Z" fill="#DBDCDF" stroke="#DBDCDF" stroke-width="1.5"/>
</svg>