<svg width="18" height="18" viewBox="0 0 18 18" fill="none" xmlns="http://www.w3.org/2000/svg">
<path d="M9 6.75C10.2625 6.75 11.3282 7.2 12.1972 8.1C13.0662 9 13.5005 10.0875 13.5 11.3625C13.5 11.7875 13.4187 12.2312 13.2562 12.6937C13.0937 13.1562 12.8532 13.6407 12.5347 14.1472C12.2162 14.6537 11.8255 15.1725 11.3625 15.7035C10.8995 16.2345 10.362 16.7812 9.75 17.3437C9.65 17.4437 9.5345 17.5157 9.4035 17.5597C9.2725 17.6037 9.138 17.6255 9 17.625C8.862 17.6245 8.72775 17.6025 8.59725 17.559C8.46675 17.5155 8.351 17.4437 8.25 17.3437C7.6375 16.7812 7.1 16.2345 6.6375 15.7035C6.175 15.1725 5.7845 14.6537 5.466 14.1472C5.1475 13.6407 4.90675 13.1562 4.74375 12.6937C4.58075 12.2312 4.4995 11.7875 4.5 11.3625C4.5 10.0875 4.9345 9 5.8035 8.1C6.6725 7.2 7.738 6.75 9 6.75ZM9 12.375C9.3125 12.375 9.57825 12.2657 9.79725 12.0472C10.0162 11.8287 10.1255 11.563 10.125 11.25C10.1245 10.937 10.0152 10.6715 9.79725 10.4535C9.57925 10.2355 9.3135 10.126 9 10.125C8.6865 10.124 8.421 10.2335 8.2035 10.4535C7.986 10.6735 7.8765 10.939 7.875 11.25C7.8735 11.561 7.983 11.8267 8.2035 12.0472C8.424 12.2677 8.6895 12.377 9 12.375ZM9 4.5C8.625 4.5 8.2625 4.55 7.9125 4.65C7.5625 4.75 7.23125 4.90625 6.91875 5.11875C6.74375 5.23125 6.55 5.2845 6.3375 5.2785C6.125 5.2725 5.95 5.2005 5.8125 5.0625C5.6625 4.9125 5.5905 4.7375 5.5965 4.5375C5.6025 4.3375 5.687 4.175 5.85 4.05C6.3 3.7125 6.79375 3.453 7.33125 3.2715C7.86875 3.09 8.425 2.9995 9 3C9.575 3.0005 10.1312 3.091 10.6687 3.2715C11.2062 3.452 11.7 3.7115 12.15 4.05C12.3125 4.175 12.397 4.3375 12.4035 4.5375C12.41 4.7375 12.338 4.9125 12.1875 5.0625C12.05 5.2 11.875 5.272 11.6625 5.2785C11.45 5.285 11.2562 5.23175 11.0812 5.11875C10.7687 4.90625 10.4375 4.75 10.0875 4.65C9.7375 4.55 9.375 4.5 9 4.5ZM9 1.5C8.225 1.5 7.48125 1.625 6.76875 1.875C6.05625 2.125 5.4 2.4875 4.8 2.9625C4.6375 3.1 4.45 3.1655 4.2375 3.159C4.025 3.1525 3.84375 3.08075 3.69375 2.94375C3.54375 2.79375 3.475 2.61575 3.4875 2.40975C3.5 2.20375 3.5875 2.03175 3.75 1.89375C4.4875 1.28125 5.30325 0.8125 6.19725 0.4875C7.09125 0.1625 8.0255 0 9 0C9.9745 0 10.909 0.1625 11.8035 0.4875C12.698 0.8125 13.5135 1.28125 14.25 1.89375C14.4125 2.03125 14.5 2.20625 14.5125 2.41875C14.525 2.63125 14.4562 2.8125 14.3062 2.9625C14.1687 3.1125 13.9937 3.1875 13.7812 3.1875C13.5687 3.1875 13.3812 3.11875 13.2187 2.98125C12.6187 2.50625 11.9595 2.14075 11.241 1.88475C10.5225 1.62875 9.7755 1.5005 9 1.5Z" fill="#BBC9F4"/>
<path d="M9 4.5C8.625 4.5 8.2625 4.55 7.9125 4.65C7.5625 4.75 7.23125 4.90625 6.91875 5.11875C6.74375 5.23125 6.55 5.2845 6.3375 5.2785C6.125 5.2725 5.95 5.2005 5.8125 5.0625C5.6625 4.9125 5.5905 4.7375 5.5965 4.5375C5.6025 4.3375 5.687 4.175 5.85 4.05C6.3 3.7125 6.79375 3.453 7.33125 3.2715C7.86875 3.09 8.425 2.9995 9 3C9.575 3.0005 10.1312 3.091 10.6687 3.2715C11.2062 3.452 11.7 3.7115 12.15 4.05C12.3125 4.175 12.397 4.3375 12.4035 4.5375C12.41 4.7375 12.338 4.9125 12.1875 5.0625C12.05 5.2 11.875 5.272 11.6625 5.2785C11.45 5.285 11.2562 5.23175 11.0812 5.11875C10.7687 4.90625 10.4375 4.75 10.0875 4.65C9.7375 4.55 9.375 4.5 9 4.5ZM9 1.5C8.225 1.5 7.48125 1.625 6.76875 1.875C6.05625 2.125 5.4 2.4875 4.8 2.9625C4.6375 3.1 4.45 3.1655 4.2375 3.159C4.025 3.1525 3.84375 3.08075 3.69375 2.94375C3.54375 2.79375 3.475 2.61575 3.4875 2.40975C3.5 2.20375 3.5875 2.03175 3.75 1.89375C4.4875 1.28125 5.30325 0.8125 6.19725 0.4875C7.09125 0.1625 8.0255 0 9 0C9.9745 0 10.909 0.1625 11.8035 0.4875C12.698 0.8125 13.5135 1.28125 14.25 1.89375C14.4125 2.03125 14.5 2.20625 14.5125 2.41875C14.525 2.63125 14.4562 2.8125 14.3062 2.9625C14.1687 3.1125 13.9937 3.1875 13.7812 3.1875C13.5687 3.1875 13.3812 3.11875 13.2187 2.98125C12.6187 2.50625 11.9595 2.14075 11.241 1.88475C10.5225 1.62875 9.7755 1.5005 9 1.5Z" fill="#6C8AE6"/>
</svg>
