<svg width="18" height="18" viewBox="0 0 18 18" fill="none" xmlns="http://www.w3.org/2000/svg">
<path d="M9.00001 16.5187C8.80001 16.5187 8.60926 16.4812 8.42776 16.4062C8.24626 16.3312 8.08076 16.225 7.93126 16.0875L1.91251 10.0687C1.77501 9.91874 1.66876 9.75299 1.59376 9.57149C1.51876 9.38999 1.48126 9.19949 1.48126 8.99999C1.48126 8.80049 1.51876 8.60674 1.59376 8.41874C1.66876 8.23074 1.77501 8.06824 1.91251 7.93124L7.93126 1.91249C8.08126 1.76249 8.24701 1.65299 8.42851 1.58399C8.61001 1.51499 8.80051 1.48074 9.00001 1.48124C9.19951 1.48174 9.39326 1.51624 9.58126 1.58474C9.76926 1.65324 9.93176 1.76249 10.0688 1.91249L16.0875 7.93124C16.2375 8.06874 16.347 8.23124 16.416 8.41874C16.485 8.60624 16.5193 8.79999 16.5188 8.99999C16.5183 9.19999 16.484 9.39074 16.416 9.57224C16.348 9.75374 16.2385 9.91924 16.0875 10.0687L10.0688 16.0875C9.93126 16.225 9.76876 16.3312 9.58126 16.4062C9.39376 16.4812 9.20001 16.5187 9.00001 16.5187ZM8.25001 9.74999H9.75001V5.24999H8.25001V9.74999ZM9.00001 12C9.21251 12 9.39076 11.928 9.53476 11.784C9.67876 11.64 9.75051 11.462 9.75001 11.25C9.74951 11.038 9.67751 10.86 9.53401 10.716C9.39051 10.572 9.21251 10.5 9.00001 10.5C8.78751 10.5 8.60951 10.572 8.46601 10.716C8.32251 10.86 8.25051 11.038 8.25001 11.25C8.24951 11.462 8.32151 11.6402 8.46601 11.7847C8.61051 11.9292 8.78851 12.001 9.00001 12Z" fill="#FF5253"/>
</svg>
