<svg width="28" height="28" viewBox="0 0 28 28" fill="none" xmlns="http://www.w3.org/2000/svg">
<path d="M12.3501 2.81017L4.10006 8.99767C3.41256 9.52017 3.00006 10.3314 3.00006 11.1977V23.5727C3.00006 25.0852 4.23756 26.3227 5.75006 26.3227H22.2501C23.7626 26.3227 25.0001 25.0852 25.0001 23.5727V11.1977C25.0001 10.3314 24.5876 9.52017 23.9001 8.99767L15.6501 2.81017C15.1732 2.45526 14.5945 2.26358 14.0001 2.26358C13.4056 2.26358 12.827 2.45526 12.3501 2.81017ZM10.9063 14.6352C11.3622 14.6352 11.7993 14.8162 12.1217 15.1386C12.444 15.4609 12.6251 15.8981 12.6251 16.3539C12.6251 16.8098 12.444 17.2469 12.1217 17.5693C11.7993 17.8916 11.3622 18.0727 10.9063 18.0727C10.4505 18.0727 10.0133 17.8916 9.69097 17.5693C9.36864 17.2469 9.18756 16.8098 9.18756 16.3539C9.18756 15.8981 9.36864 15.4609 9.69097 15.1386C10.0133 14.8162 10.4505 14.6352 10.9063 14.6352ZM20.1876 22.1977C19.8026 22.1977 19.5001 21.8952 19.5001 21.5102V20.1352H8.50006V21.5102C8.50006 21.8952 8.19756 22.1977 7.81256 22.1977C7.42756 22.1977 7.12506 21.8952 7.12506 21.5102V13.2602C7.12506 12.8752 7.42756 12.5727 7.81256 12.5727C8.19756 12.5727 8.50006 12.8752 8.50006 13.2602V18.7602H13.3126V14.6352C13.3126 14.2502 13.6151 13.9477 14.0001 13.9477H18.1251C19.6376 13.9477 20.8751 15.1852 20.8751 16.6977V21.5102C20.8751 21.8952 20.5726 22.1977 20.1876 22.1977Z" fill="#6C8AE6"/>
</svg>
