<svg width="18" height="18" viewBox="0 0 18 18" fill="none" xmlns="http://www.w3.org/2000/svg">
<rect width="18" height="18" fill="white"/>
<path d="M1 10.0979C1 5.67967 4.58172 2.09795 9 2.09795C13.4183 2.09795 17 5.67967 17 10.0979V14.2719C17 15.2804 16.1824 16.0979 15.1739 16.0979H2.82609C1.81757 16.0979 1 15.2804 1 14.2719V10.0979Z" fill="#B1DDCD"/>
<path d="M4.66678 12.8915C4.66678 10.4983 6.60682 8.5583 8.99998 8.5583C11.3931 8.5583 13.3332 10.4983 13.3332 12.8915V15.1394C13.3332 15.6846 12.8912 16.1265 12.346 16.1265H8.99998H5.65394C5.10875 16.1265 4.66678 15.6846 4.66678 15.1394V12.8915Z" fill="white"/>
<path d="M12.7395 16.0959V12.3563C12.7395 10.291 11.0653 8.61673 8.99998 8.61673V8.61673C6.93467 8.61673 5.26041 10.291 5.26041 12.3563V16.0959" stroke="#6BBFA1" stroke-width="2"/>
</svg>
