<svg width="18" height="18" viewBox="0 0 18 18" fill="none" xmlns="http://www.w3.org/2000/svg">
<path d="M9.96712 3.5975C9.70163 3.37487 9.35733 3.25171 9.00042 3.25171C8.64352 3.25171 8.29921 3.37487 8.03372 3.5975L2.73015 8.0453C2.57919 8.17178 2.45841 8.32649 2.37568 8.49937C2.29295 8.67226 2.25011 8.85945 2.24994 9.0488V15.3983C2.24994 15.7563 2.40233 16.0997 2.67359 16.3529C2.94485 16.6061 3.31275 16.7483 3.69637 16.7483H5.62494C6.00856 16.7483 6.37646 16.6061 6.64772 16.3529C6.91898 16.0997 7.07137 15.7563 7.07137 15.3983V11.7983C7.07137 11.6789 7.12216 11.5645 7.21258 11.4801C7.303 11.3957 7.42564 11.3483 7.55351 11.3483H10.4464C10.5742 11.3483 10.6969 11.3957 10.7873 11.4801C10.8777 11.5645 10.9285 11.6789 10.9285 11.7983V15.3983C10.9285 15.7563 11.0809 16.0997 11.3522 16.3529C11.6234 16.6061 11.9913 16.7483 12.3749 16.7483H14.3035C14.6871 16.7483 15.055 16.6061 15.3263 16.3529C15.5975 16.0997 15.7499 15.7563 15.7499 15.3983V9.0488C15.7499 8.85952 15.7072 8.67236 15.6246 8.49948C15.5421 8.3266 15.4215 8.17186 15.2707 8.0453L9.96712 3.5975Z" fill="#BBC9F4"/>
<path d="M16.5 8.49982L9.65493 2.56742C9.27907 2.24168 8.72093 2.24168 8.34507 2.56742L1.5 8.49982" stroke="#6C8AE6" stroke-width="2" stroke-linecap="round"/>
</svg>
