<svg width="18" height="18" viewBox="0 0 18 18" fill="none" xmlns="http://www.w3.org/2000/svg">
<path d="M10.6875 14.25H11.8125C13.5503 14.2463 14.481 14.2035 15.1665 13.7445C15.4941 13.5258 15.7755 13.2447 15.9945 12.9173C16.5 12.1598 16.5 11.1068 16.5 9.00001C16.5 6.89326 16.5 5.84026 15.9945 5.08351C15.7755 4.75608 15.4941 4.47498 15.1665 4.25626C14.4803 3.79726 13.5503 3.75451 11.8125 3.75076H10.6875V6.75001H11.25C11.8467 6.75001 12.419 6.98707 12.841 7.40902C13.2629 7.83098 13.5 8.40328 13.5 9.00001C13.5 9.59675 13.2629 10.169 12.841 10.591C12.419 11.013 11.8467 11.25 11.25 11.25H10.6875V14.25ZM7.3125 14.25V11.25H6.75C6.15326 11.25 5.58097 11.013 5.15901 10.591C4.73705 10.169 4.5 9.59675 4.5 9.00001C4.5 8.40328 4.73705 7.83098 5.15901 7.40902C5.58097 6.98707 6.15326 6.75001 6.75 6.75001H7.3125V3.75076H6.1875C4.44975 3.75451 3.51975 3.79726 2.8335 4.25626C2.50586 4.47498 2.22451 4.75608 2.0055 5.08351C1.5 5.84026 1.5 6.89401 1.5 9.00001C1.5 11.1075 1.5 12.1605 2.0055 12.9173C2.22451 13.2447 2.50586 13.5258 2.8335 13.7445C3.51975 14.2035 4.44975 14.2463 6.1875 14.25H7.3125Z" fill="#6C8AE6"/>
<path opacity="0.5" d="M7.3125 14.25H10.6875V3.75H7.3125V14.25Z" fill="#6C8AE6"/>
</svg>
