<svg width="24" height="24" viewBox="0 0 24 24" fill="none" xmlns="http://www.w3.org/2000/svg">
<path d="M19.635 14.7075C20.0014 14.7075 20.3642 14.6353 20.7027 14.4951C21.0412 14.3549 21.3488 14.1494 21.6078 13.8903C21.8669 13.6313 22.0724 13.3237 22.2126 12.9852C22.3528 12.6467 22.425 12.2839 22.425 11.9175C22.425 11.5511 22.3528 11.1883 22.2126 10.8498C22.0724 10.5113 21.8669 10.2037 21.6078 9.94467C21.3488 9.6856 21.0412 9.48009 20.7027 9.33988C20.3642 9.19967 20.0014 9.1275 19.635 9.1275C18.895 9.1275 18.1854 9.42145 17.6622 9.94467C17.1389 10.4679 16.845 11.1775 16.845 11.9175C16.845 12.6575 17.1389 13.3671 17.6622 13.8903C18.1854 14.4136 18.895 14.7075 19.635 14.7075Z" fill="#BBC9F4"/>
<path d="M8.24999 8.25L8.75999 7.5C9.69749 7.5 10.6275 7.2825 11.4675 6.8775L16.1625 4.5675V19.2825L11.4675 16.9725C10.6249 16.5586 9.69874 16.3431 8.75999 16.3425L8.24999 15V8.25ZM4.66199 21.756H6.59249C7.09499 21.756 7.49999 21.351 7.49999 20.8485V14.9175H3.75449V20.8485C3.75449 21.351 4.15949 21.756 4.66199 21.756Z" fill="#E3E9FA"/>
<path d="M18.0525 2.25C17.4418 2.25 16.8562 2.49258 16.4244 2.92439C15.9926 3.35619 15.75 3.94184 15.75 4.5525V19.29C15.75 19.9007 15.9926 20.4863 16.4244 20.9181C16.8562 21.3499 17.4418 21.5925 18.0525 21.5925C18.6632 21.5925 19.2488 21.3499 19.6806 20.9181C20.1124 20.4863 20.355 19.9007 20.355 19.29V4.5525C20.3536 3.94227 20.1106 3.35742 19.6791 2.92592C19.2476 2.49442 18.6627 2.25139 18.0525 2.25Z" fill="#6C8AE6"/>
<path d="M2.79525 7.5H9V16.335H2.79525C2.0775 16.335 1.5 15.7725 1.5 15.0825V8.76C1.5 8.0625 2.0775 7.5 2.79525 7.5Z" fill="#6C8AE6"/>
</svg>
