<svg width="18" height="18" viewBox="0 0 18 18" fill="none" xmlns="http://www.w3.org/2000/svg">
<rect width="18" height="18" rx="9" fill="#DBDCDF"/>
<path d="M5.97656 4.51562H9.30469C9.93359 4.51562 10.4766 4.63672 10.9336 4.87891C11.3906 5.12109 11.7383 5.45898 11.9766 5.89258C12.2188 6.32227 12.3398 6.81641 12.3398 7.375C12.3398 7.94141 12.2168 8.44141 11.9707 8.875C11.7285 9.30469 11.375 9.63867 10.9102 9.87695C10.4492 10.1152 9.89844 10.2344 9.25781 10.2344H7.73438V13H5.97656V4.51562ZM8.97656 8.81641C9.48438 8.81641 9.86914 8.6875 10.1309 8.42969C10.3965 8.16797 10.5273 7.81641 10.5234 7.375C10.5273 6.94141 10.3965 6.59766 10.1309 6.34375C9.86914 6.08984 9.48438 5.96094 8.97656 5.95703H7.73438V8.81641H8.97656Z" fill="#989BA2"/>
</svg>
