<svg width="16" height="16" viewBox="0 0 16 16" fill="none" xmlns="http://www.w3.org/2000/svg">
<path d="M4.5 4C4.5 3.07174 4.86875 2.1815 5.52513 1.52513C6.1815 0.868749 7.07174 0.5 8 0.5C8.92826 0.5 9.8185 0.868749 10.4749 1.52513C11.1313 2.1815 11.5 3.07174 11.5 4C11.5 4.92826 11.1313 5.8185 10.4749 6.47487C9.8185 7.13125 8.92826 7.5 8 7.5C7.07174 7.5 6.1815 7.13125 5.52513 6.47487C4.86875 5.8185 4.5 4.92826 4.5 4Z" fill="#6C8AE6"/>
<path d="M11.9583 15.5C12.8976 15.5 13.7985 15.3041 14.4627 14.9554C15.1269 14.6067 15.5 14.1338 15.5 13.6406L15.5 12.4375C15.5 11.3932 14.7098 10.3917 13.3033 9.65327C11.8968 8.91484 9.98912 8.5 8 8.5C6.01088 8.5 4.10322 8.91484 2.6967 9.65327C1.29018 10.3917 0.5 11.3932 0.5 12.4375L0.5 13.6406C0.5 14.1338 0.873139 14.6067 1.53733 14.9554C2.20152 15.3041 3.10236 15.5 4.04167 15.5L11.9583 15.5Z" fill="#6C8AE6"/>
</svg>
