<svg width="25" height="24" viewBox="0 0 25 24" fill="none" xmlns="http://www.w3.org/2000/svg">
<path fill-rule="evenodd" clip-rule="evenodd" d="M12.3333 2C10.4768 2 8.69632 2.7375 7.38357 4.05025C6.07081 5.36301 5.33331 7.14348 5.33331 9C4.53766 9 3.7746 9.31607 3.21199 9.87868C2.64938 10.4413 2.33331 11.2044 2.33331 12V14C2.33331 14.7956 2.64938 15.5587 3.21199 16.1213C3.7746 16.6839 4.53766 17 5.33331 17H6.33331C6.59853 17 6.85288 16.8946 7.04042 16.7071C7.22796 16.5196 7.33331 16.2652 7.33331 16V9C7.33331 7.67392 7.8601 6.40215 8.79778 5.46447C9.73546 4.52678 11.0072 4 12.3333 4C13.6594 4 14.9312 4.52678 15.8688 5.46447C16.8065 6.40215 17.3333 7.67392 17.3333 9V16.083C17.3325 16.8564 17.0249 17.5979 16.4781 18.1448C15.9312 18.6916 15.1897 18.9992 14.4163 19H14.3333C14.3333 18.4696 14.1226 17.9609 13.7475 17.5858C13.3725 17.2107 12.8637 17 12.3333 17H11.3333C10.8029 17 10.2942 17.2107 9.9191 17.5858C9.54403 17.9609 9.33331 18.4696 9.33331 19V20C9.33331 20.5304 9.54403 21.0391 9.9191 21.4142C10.2942 21.7893 10.8029 22 11.3333 22H12.3333C12.6844 22 13.0293 21.9076 13.3333 21.732C13.6373 21.5565 13.8898 21.304 14.0653 21H14.4163C15.561 20.9993 16.6696 20.5994 17.5512 19.8693C18.4328 19.1392 19.0323 18.1245 19.2463 17H19.3333C20.129 17 20.892 16.6839 21.4546 16.1213C22.0172 15.5587 22.3333 14.7956 22.3333 14V12C22.3333 11.2044 22.0172 10.4413 21.4546 9.87868C20.892 9.31607 20.129 9 19.3333 9C19.3333 7.14348 18.5958 5.36301 17.2831 4.05025C15.9703 2.7375 14.1898 2 12.3333 2ZM13.7833 5.275C13.043 4.98719 12.2337 4.92632 11.4587 5.10014C10.6836 5.27396 9.97784 5.6746 9.43131 6.251C9.24884 6.44355 9.15034 6.70069 9.15746 6.96587C9.16459 7.23105 9.27677 7.48253 9.46931 7.665C9.66186 7.84747 9.91901 7.94598 10.1842 7.93885C10.4494 7.93172 10.7008 7.81955 10.8833 7.627C11.0647 7.43569 11.2822 7.28213 11.5231 7.17516C11.7641 7.06819 12.0238 7.00991 12.2874 7.00368C12.5509 6.99746 12.8131 7.0434 13.0589 7.13888C13.3046 7.23435 13.5291 7.37747 13.7193 7.56C13.814 7.65101 13.9257 7.72247 14.048 7.77032C14.1703 7.81816 14.3008 7.84145 14.4321 7.83885C14.5634 7.83625 14.6929 7.80781 14.8132 7.75516C14.9335 7.70251 15.0423 7.62668 15.1333 7.532C15.2243 7.43732 15.2958 7.32564 15.3436 7.20333C15.3915 7.08103 15.4148 6.9505 15.4122 6.8192C15.4096 6.6879 15.3811 6.55839 15.3285 6.43808C15.2758 6.31777 15.2 6.20901 15.1053 6.118C14.7249 5.75265 14.2759 5.46615 13.7843 5.275H13.7833Z" fill="#5A5C63"/>
</svg>
