<svg width="25" height="24" viewBox="0 0 25 24" fill="none" xmlns="http://www.w3.org/2000/svg">
<path d="M3.16666 12C3.16666 7.522 3.16666 5.282 4.55766 3.891C5.94866 2.5 8.18766 2.5 12.6667 2.5C17.1447 2.5 19.3847 2.5 20.7757 3.891C22.1667 5.282 22.1667 7.521 22.1667 12C22.1667 16.478 22.1667 18.718 20.7757 20.109C19.3847 21.5 17.1457 21.5 12.6667 21.5C8.18866 21.5 5.94866 21.5 4.55766 20.109C3.16666 18.718 3.16666 16.479 3.16666 12Z" fill="#E0F1EB" stroke="#51B491" stroke-width="1.5" stroke-linecap="round" stroke-linejoin="round"/>
<path d="M9.16666 10C8.76883 10 8.3873 9.84196 8.106 9.56066C7.82469 9.27936 7.66666 8.89782 7.66666 8.5C7.66666 8.10218 7.82469 7.72064 8.106 7.43934C8.3873 7.15804 8.76883 7 9.16666 7C9.56448 7 9.94601 7.15804 10.2273 7.43934C10.5086 7.72064 10.6667 8.10218 10.6667 8.5C10.6667 8.89782 10.5086 9.27936 10.2273 9.56066C9.94601 9.84196 9.56448 10 9.16666 10ZM16.1667 17C16.5645 17 16.946 16.842 17.2273 16.5607C17.5086 16.2794 17.6667 15.8978 17.6667 15.5C17.6667 15.1022 17.5086 14.7206 17.2273 14.4393C16.946 14.158 16.5645 14 16.1667 14C15.7688 14 15.3873 14.158 15.106 14.4393C14.8247 14.7206 14.6667 15.1022 14.6667 15.5C14.6667 15.8978 14.8247 16.2794 15.106 16.5607C15.3873 16.842 15.7688 17 16.1667 17ZM10.6667 8.5H17.6667H10.6667ZM14.6667 15.5H7.66666H14.6667Z" fill="#51B491"/>
<path d="M10.6667 8.5C10.6667 8.10218 10.5086 7.72064 10.2273 7.43934C9.94601 7.15804 9.56448 7 9.16666 7C8.76883 7 8.3873 7.15804 8.106 7.43934C7.82469 7.72064 7.66666 8.10218 7.66666 8.5C7.66666 8.89782 7.82469 9.27936 8.106 9.56066C8.3873 9.84196 8.76883 10 9.16666 10C9.56448 10 9.94601 9.84196 10.2273 9.56066C10.5086 9.27936 10.6667 8.89782 10.6667 8.5ZM10.6667 8.5H17.6667M14.6667 15.5C14.6667 15.1022 14.8247 14.7206 15.106 14.4393C15.3873 14.158 15.7688 14 16.1667 14C16.5645 14 16.946 14.158 17.2273 14.4393C17.5086 14.7206 17.6667 15.1022 17.6667 15.5C17.6667 15.8978 17.5086 16.2794 17.2273 16.5607C16.946 16.842 16.5645 17 16.1667 17C15.7688 17 15.3873 16.842 15.106 16.5607C14.8247 16.2794 14.6667 15.8978 14.6667 15.5ZM14.6667 15.5H7.66666" stroke="#51B491" stroke-width="1.5" stroke-linecap="round" stroke-linejoin="round"/>
</svg>
