<svg width="20" height="20" viewBox="0 0 20 20" fill="none" xmlns="http://www.w3.org/2000/svg">
<path d="M9.00001 3.25L4.00001 7C3.58334 7.31666 3.33334 7.80833 3.33334 8.33333V15.8333C3.33334 16.75 4.08334 17.5 5.00001 17.5H15C15.9167 17.5 16.6667 16.75 16.6667 15.8333V8.33333C16.6667 7.80833 16.4167 7.31666 16 7L11 3.25C10.711 3.0349 10.3603 2.91873 10 2.91873C9.63972 2.91873 9.28904 3.0349 9.00001 3.25ZM8.12501 10.4167C8.40128 10.4167 8.66623 10.5264 8.86158 10.7218C9.05693 10.9171 9.16668 11.1821 9.16668 11.4583C9.16668 11.7346 9.05693 11.9995 8.86158 12.1949C8.66623 12.3902 8.40128 12.5 8.12501 12.5C7.84874 12.5 7.58379 12.3902 7.38844 12.1949C7.19309 11.9995 7.08334 11.7346 7.08334 11.4583C7.08334 11.1821 7.19309 10.9171 7.38844 10.7218C7.58379 10.5264 7.84874 10.4167 8.12501 10.4167ZM13.75 15C13.5167 15 13.3333 14.8167 13.3333 14.5833V13.75H6.66668V14.5833C6.66668 14.8167 6.48334 15 6.25001 15C6.01668 15 5.83334 14.8167 5.83334 14.5833V9.58333C5.83334 9.35 6.01668 9.16666 6.25001 9.16666C6.48334 9.16666 6.66668 9.35 6.66668 9.58333V12.9167H9.58334V10.4167C9.58334 10.1833 9.76668 10 10 10H12.5C13.4167 10 14.1667 10.75 14.1667 11.6667V14.5833C14.1667 14.8167 13.9833 15 13.75 15Z" fill="#7E99E9"/>
</svg>
