<svg width="24" height="24" viewBox="0 0 24 24" fill="none" xmlns="http://www.w3.org/2000/svg">
<path d="M6 8.5C4.89543 8.77614 4.22386 9.89543 4.5 11L5.75868 16.0347C5.9005 16.602 6.41023 17 6.995 17C8.596 17 9.44 16.324 10.119 15.781C10.707 15.311 11.095 15 11.994 15C12.894 15 13.305 15.328 13.872 15.781C14.551 16.324 15.396 17 16.997 17C17.5865 17 18.1004 16.5989 18.2434 16.027L18.34 15.641L19.5001 11C19.7762 9.89543 19.1046 8.77615 18 8.5V5.001C18.0001 4.76974 17.92 4.54559 17.7734 4.36672C17.6268 4.18786 17.4228 4.06533 17.196 4.02L13 3.181V3C13 2.44772 12.5523 2 12 2C11.4477 2 11 2.44772 11 3V3.181L6.804 4.02C6.57722 4.06533 6.37316 4.18786 6.22657 4.36672C6.07998 4.54559 5.99991 4.76974 6 5.001V8.5ZM8 5.819L12 5.019L16 5.819V8L12 7L8 8V5.819Z" fill="#9AAFEE"/>
<path d="M16.997 20C16.098 20 15.709 19.689 15.121 19.219C14.441 18.676 13.596 18 11.994 18C10.392 18 9.548 18.676 8.869 19.22C8.282 19.689 7.894 20 6.995 20C6.098 20 5.71 19.689 5.123 19.22C4.60055 18.8014 3.98101 18.3047 2.99379 18.0979C2.45324 17.9847 2 18.4477 2 19C2 19.5523 2.46982 19.9595 2.97658 20.1791C3.2927 20.3161 3.55334 20.5246 3.873 20.78C4.552 21.324 5.396 22 6.995 22C8.596 22 9.44 21.324 10.119 20.781C10.707 20.311 11.095 20 11.994 20C12.894 20 13.305 20.328 13.872 20.781C14.551 21.324 15.396 22 16.997 22C18.598 22 19.443 21.324 20.122 20.781C20.4339 20.5318 20.6987 20.3204 21.0236 20.1806C21.5309 19.9624 22 19.5523 22 19C22 18.4477 21.5468 17.9847 21.0062 18.0977C20.0175 18.3044 19.3964 18.8011 18.873 19.219C18.285 19.689 17.896 20 16.997 20Z" fill="#6C8AE6"/>
</svg>
