<svg width="18" height="18" viewBox="0 0 18 18" fill="none" xmlns="http://www.w3.org/2000/svg">
<path fill-rule="evenodd" clip-rule="evenodd" d="M16.5 9C16.5 13.1423 13.1423 16.5 9.00001 16.5C7.80001 16.5 6.66601 16.218 5.66101 15.717C5.39561 15.5795 5.08905 15.544 4.79926 15.6173L3.12976 16.0643C2.96451 16.1083 2.79058 16.1082 2.6254 16.0638C2.46023 16.0194 2.30964 15.9324 2.18875 15.8114C2.06785 15.6904 1.9809 15.5398 1.93663 15.3746C1.89235 15.2094 1.89231 15.0355 1.93651 14.8702L2.38276 13.2008C2.45555 12.9111 2.4198 12.6048 2.28226 12.3397C1.76598 11.3022 1.49817 10.1589 1.50001 9C1.50001 4.85775 4.85776 1.5 9.00001 1.5C13.1423 1.5 16.5 4.85775 16.5 9ZM9.00001 5.4375C9.14919 5.4375 9.29227 5.49676 9.39776 5.60225C9.50325 5.70774 9.56251 5.85082 9.56251 6V12C9.56251 12.1492 9.50325 12.2923 9.39776 12.3977C9.29227 12.5032 9.14919 12.5625 9.00001 12.5625C8.85082 12.5625 8.70775 12.5032 8.60226 12.3977C8.49677 12.2923 8.43751 12.1492 8.43751 12V6C8.43751 5.85082 8.49677 5.70774 8.60226 5.60225C8.70775 5.49676 8.85082 5.4375 9.00001 5.4375ZM6.56251 7.5C6.56251 7.35082 6.50325 7.20774 6.39776 7.10225C6.29227 6.99676 6.14919 6.9375 6.00001 6.9375C5.85082 6.9375 5.70775 6.99676 5.60226 7.10225C5.49677 7.20774 5.43751 7.35082 5.43751 7.5V10.5C5.43751 10.6492 5.49677 10.7923 5.60226 10.8977C5.70775 11.0032 5.85082 11.0625 6.00001 11.0625C6.14919 11.0625 6.29227 11.0032 6.39776 10.8977C6.50325 10.7923 6.56251 10.6492 6.56251 10.5V7.5ZM12 6.9375C12.1492 6.9375 12.2923 6.99676 12.3978 7.10225C12.5032 7.20774 12.5625 7.35082 12.5625 7.5V10.5C12.5625 10.6492 12.5032 10.7923 12.3978 10.8977C12.2923 11.0032 12.1492 11.0625 12 11.0625C11.8508 11.0625 11.7078 11.0032 11.6023 10.8977C11.4968 10.7923 11.4375 10.6492 11.4375 10.5V7.5C11.4375 7.35082 11.4968 7.20774 11.6023 7.10225C11.7078 6.99676 11.8508 6.9375 12 6.9375Z" fill="#6BBFA1"/>
</svg>
