<svg width="24" height="24" viewBox="0 0 24 24" fill="none" xmlns="http://www.w3.org/2000/svg">
<path d="M6.125 4.5C5.22989 4.5 4.37145 4.85558 3.73851 5.48851C3.10558 6.12145 2.75 6.97989 2.75 7.875V16.125C2.75 17.0201 3.10558 17.8785 3.73851 18.5115C4.37145 19.1444 5.22989 19.5 6.125 19.5H17.875C18.7701 19.5 19.6286 19.1444 20.2615 18.5115C20.8944 17.8785 21.25 17.0201 21.25 16.125V7.875C21.25 6.97989 20.8944 6.12145 20.2615 5.48851C19.6286 4.85558 18.7701 4.5 17.875 4.5H6.125ZM9.75 14.994V9.006C9.74989 8.8701 9.78671 8.73672 9.85652 8.62012C9.92633 8.50352 10.0265 8.40808 10.1464 8.344C10.2662 8.27992 10.4012 8.2496 10.5369 8.2563C10.6727 8.26299 10.804 8.30644 10.917 8.382L15.4125 11.376C15.5155 11.4444 15.6 11.5373 15.6585 11.6463C15.717 11.7553 15.7475 11.8771 15.7475 12.0008C15.7475 12.1244 15.717 12.2462 15.6585 12.3552C15.6 12.4642 15.5155 12.5571 15.4125 12.6255L10.9155 15.6195C10.8025 15.6947 10.6711 15.7379 10.5355 15.7443C10.3998 15.7507 10.265 15.7202 10.1453 15.656C10.0257 15.5917 9.92572 15.4963 9.85609 15.3797C9.78647 15.2631 9.7498 15.1298 9.75 14.994Z" fill="#A391EC"/>
</svg>
