<svg width="36" height="36" viewBox="0 0 36 36" fill="none" xmlns="http://www.w3.org/2000/svg">
<path fill-rule="evenodd" clip-rule="evenodd" d="M19.812 7.06201C19.812 6.7968 19.9174 6.54244 20.1049 6.3549C20.2924 6.16737 20.5468 6.06201 20.812 6.06201H24.062C24.3272 6.06201 24.5816 6.16737 24.7691 6.3549C24.9566 6.54244 25.062 6.7968 25.062 7.06201V9.87601H27.874C28.1392 9.87601 28.3936 9.98137 28.5811 10.1689C28.7686 10.3564 28.874 10.6108 28.874 10.876V14.126C28.874 14.3912 28.7686 14.6456 28.5811 14.8331C28.3936 15.0207 28.1392 15.126 27.874 15.126H25.062V17.938C25.062 18.2032 24.9566 18.4576 24.7691 18.6451C24.5816 18.8327 24.3272 18.938 24.062 18.938H20.812C20.5468 18.938 20.2924 18.8327 20.1049 18.6451C19.9174 18.4576 19.812 18.2032 19.812 17.938V15.126H17C16.7348 15.126 16.4804 15.0207 16.2929 14.8331C16.1054 14.6456 16 14.3912 16 14.126V10.876C16 10.6108 16.1054 10.3564 16.2929 10.1689C16.4804 9.98137 16.7348 9.87601 17 9.87601H19.812V7.06201Z" fill="#6C8AE6"/>
<path fill-rule="evenodd" clip-rule="evenodd" d="M8.03978 16.6563H7C5.34314 16.6563 4 17.9994 4 19.6562V24.1815C4 24.9771 4.31607 25.7402 4.87868 26.3028L8.0069 29.431C8.82115 30.2455 9.78788 30.8916 10.8519 31.3324C11.9159 31.7732 13.0563 32 14.208 32H27.0156C27.8876 32 28.7239 31.6536 29.3405 31.037C29.9571 30.4204 30.3035 29.584 30.3035 28.712C30.3035 27.84 29.9571 27.0037 29.3405 26.3871C28.7239 25.7705 27.8876 25.4241 27.0156 25.4241H20.9285C20.7006 26.1925 20.277 26.8885 19.6991 27.4439C19.1212 27.9993 18.4089 28.3949 17.632 28.5921C16.8551 28.7892 16.0403 28.7811 15.2675 28.5685C14.4948 28.3559 13.7905 27.9461 13.2238 27.3793L10.0454 24.201C9.9182 24.0737 9.81727 23.9227 9.74842 23.7565C9.67956 23.5902 9.64412 23.4121 9.64412 23.2321C9.64412 23.0522 9.67956 22.874 9.74842 22.7078C9.81727 22.5416 9.9182 22.3905 10.0454 22.2633C10.1727 22.1361 10.3237 22.0351 10.4899 21.9663C10.6562 21.8974 10.8343 21.862 11.0143 21.862C11.1942 21.862 11.3724 21.8974 11.5386 21.9663C11.7048 22.0351 11.8559 22.1361 11.9831 22.2633L15.1615 25.4416C15.4963 25.7757 15.9444 25.9717 16.4169 25.9908C16.8895 26.0098 17.352 25.8506 17.7126 25.5446C18.0732 25.2386 18.3056 24.8082 18.3638 24.3389C18.4219 23.8695 18.3014 23.3955 18.0264 23.0107L14.2408 19.2252C13.4266 18.4107 12.4599 17.7646 11.3959 17.3239C10.3319 16.8831 9.19147 16.6562 8.03978 16.6563Z" fill="#BBC9F4"/>
</svg>
