<svg xmlns="http://www.w3.org/2000/svg" width="36" height="36" viewBox="0 0 36 36" fill="none">
  <path d="M19.8361 7.78135C19.332 7.35869 18.6784 7.12488 18.0008 7.12488C17.3232 7.12488 16.6696 7.35869 16.1655 7.78135L6.09674 16.2255C5.81013 16.4656 5.58084 16.7593 5.42378 17.0875C5.26671 17.4157 5.18538 17.7711 5.18506 18.1306V30.1851C5.18506 30.8648 5.47437 31.5167 5.98935 31.9974C6.50433 32.478 7.2028 32.7481 7.93109 32.7481H11.5925C12.3208 32.7481 13.0192 32.478 13.5342 31.9974C14.0492 31.5167 14.3385 30.8648 14.3385 30.1851V23.3505C14.3385 23.1239 14.4349 22.9066 14.6066 22.7464C14.7783 22.5862 15.0111 22.4962 15.2539 22.4962H20.7459C20.9887 22.4962 21.2215 22.5862 21.3932 22.7464C21.5648 22.9066 21.6613 23.1239 21.6613 23.3505V30.1851C21.6613 30.8648 21.9506 31.5167 22.4656 31.9974C22.9805 32.478 23.679 32.7481 24.4073 32.7481H28.0687C28.797 32.7481 29.4954 32.478 30.0104 31.9974C30.5254 31.5167 30.8147 30.8648 30.8147 30.1851V18.1306C30.8146 17.7713 30.7336 17.416 30.5768 17.0877C30.4201 16.7595 30.1911 16.4657 29.9049 16.2255L19.8361 7.78135Z" fill="#BBC9F4"/>
  <path d="M32.2387 17.0883L19.2434 5.82564C18.5298 5.20721 17.4702 5.20722 16.7566 5.82565L3.76129 17.0883" stroke="#6C8AE6" stroke-width="3.79699" stroke-linecap="round"/>
</svg>