<svg xmlns="http://www.w3.org/2000/svg" width="36" height="36" viewBox="0 0 36 36" fill="none">
  <path d="M4.5 16.5L8.22 7.81797C8.45148 7.27797 8.83643 6.81783 9.32708 6.49464C9.81773 6.17145 10.3925 5.99945 10.98 5.99997H25.023C25.61 6.00004 26.1841 6.17231 26.6742 6.49547C27.1642 6.81862 27.5487 7.27844 27.78 7.81797L31.5 16.5M4.5 16.5H31.5M4.5 16.5V27M31.5 16.5V27M4.5 27V27.75C4.5 28.3467 4.73705 28.919 5.15901 29.341C5.58097 29.7629 6.15326 30 6.75 30C7.34674 30 7.91903 29.7629 8.34099 29.341C8.76295 28.919 9 28.3467 9 27.75V27M4.5 27H9M31.5 27V27.75C31.5 28.3467 31.2629 28.919 30.841 29.341C30.419 29.7629 29.8467 30 29.25 30C28.6533 30 28.081 29.7629 27.659 29.341C27.2371 28.919 27 28.3467 27 27.75V27M31.5 27H27M27 27H9" stroke="#9AAFEE" stroke-width="3" stroke-linecap="round" stroke-linejoin="round"/>
  <path fill-rule="evenodd" clip-rule="evenodd" d="M4.5 18.5C4.5 17.3954 5.39543 16.5 6.5 16.5H29.5C30.6046 16.5 31.5 17.3954 31.5 18.5V25C31.5 26.1046 30.6046 27 29.5 27H6.5C5.39543 27 4.5 26.1046 4.5 25V18.5ZM9 21C9 20.6022 9.15804 20.2206 9.43934 19.9393C9.72064 19.658 10.1022 19.5 10.5 19.5C10.8978 19.5 11.2809 19.658 11.5622 19.9393C11.8435 20.2206 12.0015 20.6022 12.0015 21C12.0015 21.3978 11.8435 21.7794 11.5622 22.0607C11.2809 22.342 10.8993 22.5 10.5015 22.5C10.1037 22.5 9.72064 22.342 9.43934 22.0607C9.15804 21.7794 9 21.3978 9 21ZM25.5 19.5C25.1022 19.5 24.7206 19.658 24.4393 19.9393C24.158 20.2206 24 20.6022 24 21C24 21.3978 24.158 21.7794 24.4393 22.0607C24.7206 22.342 25.1022 22.5 25.5 22.5C25.8978 22.5 26.2809 22.342 26.5622 22.0607C26.8435 21.7794 27.0015 21.3978 27.0015 21C27.0015 20.6022 26.8435 20.2206 26.5622 19.9393C26.2809 19.658 25.8978 19.5 25.5 19.5Z" fill="#5D7FE4"/>
</svg>