<svg width="24" height="24" viewBox="0 0 24 24" fill="none" xmlns="http://www.w3.org/2000/svg">
<path fill-rule="evenodd" clip-rule="evenodd" d="M3.218 4.092C3 4.52 3 5.08 3 6.2V6.814L20.99 5.178C20.971 4.69 20.92 4.364 20.782 4.092C20.5903 3.71569 20.2843 3.40974 19.908 3.218C19.48 3 18.92 3 17.8 3H6.2C5.08 3 4.52 3 4.092 3.218C3.71569 3.40974 3.40974 3.71569 3.218 4.092ZM21 7.186L16.135 7.628L18.641 20.995C19.233 20.982 19.604 20.937 19.908 20.782C20.2843 20.5903 20.5903 20.2843 20.782 19.908C21 19.48 21 18.92 21 17.8V7.186ZM16.608 21L14.134 7.81L3 8.822V17.8C3 18.92 3 19.48 3.218 19.908C3.40974 20.2843 3.71569 20.5903 4.092 20.782C4.52 21 5.08 21 6.2 21H16.608ZM12.5 15.03C12.5 17.188 10.36 18.704 9.427 19.263C9.29801 19.3404 9.15042 19.3813 9 19.3813C8.84958 19.3813 8.70199 19.3404 8.573 19.263C7.64 18.704 5.5 17.188 5.5 15.029C5.5 12.912 7.196 11.5 9 11.5C10.867 11.5 12.5 12.912 12.5 15.03Z" fill="#C2B5F3"/>
<path fill-rule="evenodd" clip-rule="evenodd" d="M16.608 21L14.134 7.81L3 8.822V17.8C3 18.92 3 19.48 3.218 19.908C3.40974 20.2843 3.71569 20.5903 4.092 20.782C4.52 21 5.08 21 6.2 21H16.608ZM12.5 15.03C12.5 17.188 10.36 18.704 9.427 19.263C9.29801 19.3404 9.15042 19.3813 9 19.3813C8.84958 19.3813 8.70199 19.3404 8.573 19.263C7.64 18.704 5.5 17.188 5.5 15.029C5.5 12.912 7.196 11.5 9 11.5C10.867 11.5 12.5 12.912 12.5 15.03Z" fill="#8B73E8"/>
<path d="M9 16C9.55228 16 10 15.5523 10 15C10 14.4477 9.55228 14 9 14C8.44772 14 8 14.4477 8 15C8 15.5523 8.44772 16 9 16Z" fill="#8B73E8"/>
</svg>
