<svg width="25" height="24" viewBox="0 0 25 24" fill="none" xmlns="http://www.w3.org/2000/svg">
<path d="M12.5 3C10.7098 3 8.99292 3.71116 7.72705 4.97703C6.46118 6.2429 5.75002 7.95979 5.75002 9.75V13.3515L4.30402 16.9725C4.25873 17.0862 4.24196 17.2093 4.25518 17.331C4.26839 17.4527 4.31119 17.5693 4.37984 17.6706C4.44849 17.772 4.5409 17.855 4.649 17.9124C4.7571 17.9698 4.87762 17.9999 5.00002 18H20C20.1224 17.9999 20.2429 17.9698 20.351 17.9124C20.4591 17.855 20.5516 17.772 20.6202 17.6706C20.6888 17.5693 20.7316 17.4527 20.7449 17.331C20.7581 17.2093 20.7413 17.0862 20.696 16.9725L19.25 13.35V10.5C18.5281 10.5001 17.8215 10.2917 17.215 9.90003C16.6086 9.50832 16.1281 8.94988 15.8313 8.29177C15.5344 7.63367 15.4339 6.90387 15.5417 6.19001C15.6495 5.47616 15.9611 4.8086 16.439 4.2675C15.292 3.44121 13.9137 2.99767 12.5 3ZM12.5 21.75C11.8348 21.7502 11.1884 21.5292 10.6624 21.1219C10.1365 20.7146 9.76082 20.1441 9.59452 19.5H15.4055C15.2392 20.1441 14.8636 20.7146 14.3376 21.1219C13.8116 21.5292 13.1652 21.7502 12.5 21.75ZM19.25 9C19.8468 9 20.4191 8.76295 20.841 8.34099C21.263 7.91903 21.5 7.34674 21.5 6.75C21.5 6.15326 21.263 5.58097 20.841 5.15901C20.4191 4.73705 19.8468 4.5 19.25 4.5C18.6533 4.5 18.081 4.73705 17.659 5.15901C17.2371 5.58097 17 6.15326 17 6.75C17 7.34674 17.2371 7.91903 17.659 8.34099C18.081 8.76295 18.6533 9 19.25 9Z" fill="#476DE0"/>
<path d="M12.5 3C10.7098 3 8.99292 3.71116 7.72705 4.97703C6.46118 6.2429 5.75002 7.95979 5.75002 9.75V13.3515L4.30402 16.9725C4.25873 17.0862 4.24196 17.2093 4.25518 17.331C4.26839 17.4527 4.31119 17.5693 4.37984 17.6706C4.44849 17.772 4.5409 17.855 4.649 17.9124C4.7571 17.9698 4.87762 17.9999 5.00002 18H20C20.1224 17.9999 20.2429 17.9698 20.351 17.9124C20.4591 17.855 20.5516 17.772 20.6202 17.6706C20.6888 17.5693 20.7316 17.4527 20.7449 17.331C20.7581 17.2093 20.7413 17.0862 20.696 16.9725L19.25 13.35V10.5C18.5281 10.5001 17.8215 10.2917 17.215 9.90003C16.6086 9.50832 16.1281 8.94988 15.8313 8.29177C15.5344 7.63367 15.4339 6.90387 15.5417 6.19001C15.6495 5.47616 15.9611 4.8086 16.439 4.2675C15.292 3.44121 13.9137 2.99767 12.5 3ZM12.5 21.75C11.8348 21.7502 11.1884 21.5292 10.6624 21.1219C10.1365 20.7146 9.76082 20.1441 9.59452 19.5H15.4055C15.2392 20.1441 14.8636 20.7146 14.3376 21.1219C13.8116 21.5292 13.1652 21.7502 12.5 21.75Z" fill="#C2C4C8"/>
</svg>
