<svg width="24" height="24" viewBox="0 0 24 24" fill="none" xmlns="http://www.w3.org/2000/svg">
<g clip-path="url(#clip0_169_1517)">
<path d="M21.0001 7C21.2653 7 21.5196 7.10536 21.7072 7.29289C21.8947 7.48043 22.0001 7.73478 22.0001 8C22.0001 8.26522 21.8947 8.51957 21.7072 8.70711C21.5196 8.89464 21.2653 9 21.0001 9V19C21.2653 19 21.5196 19.1054 21.7072 19.2929C21.8947 19.4804 22.0001 19.7348 22.0001 20C22.0001 20.2652 21.8947 20.5196 21.7072 20.7071C21.5196 20.8946 21.2653 21 21.0001 21H3.00006C2.73484 21 2.48049 20.8946 2.29295 20.7071C2.10542 20.5196 2.00006 20.2652 2.00006 20C2.00006 19.7348 2.10542 19.4804 2.29295 19.2929C2.48049 19.1054 2.73484 19 3.00006 19V9C2.73484 9 2.48049 8.89464 2.29295 8.70711C2.10542 8.51957 2.00006 8.26522 2.00006 8C2.00006 7.73478 2.10542 7.48043 2.29295 7.29289C2.48049 7.10536 2.73484 7 3.00006 7H21.0001ZM7.00006 11C6.73484 11 6.48049 11.1054 6.29295 11.2929C6.10542 11.4804 6.00006 11.7348 6.00006 12V19H8.00006V12C8.00006 11.7348 7.8947 11.4804 7.70717 11.2929C7.51963 11.1054 7.26528 11 7.00006 11ZM12.0001 11C11.7348 11 11.4805 11.1054 11.293 11.2929C11.1054 11.4804 11.0001 11.7348 11.0001 12V19H13.0001V12C13.0001 11.7348 12.8947 11.4804 12.7072 11.2929C12.5196 11.1054 12.2653 11 12.0001 11ZM17.0001 11C16.7348 11 16.4805 11.1054 16.293 11.2929C16.1054 11.4804 16.0001 11.7348 16.0001 12V19H18.0001V12C18.0001 11.7348 17.8947 11.4804 17.7072 11.2929C17.5196 11.1054 17.2653 11 17.0001 11ZM18.0001 4C18.2653 4 18.5196 4.10536 18.7072 4.29289C18.8947 4.48043 19.0001 4.73478 19.0001 5C19.0001 5.26522 18.8947 5.51957 18.7072 5.70711C18.5196 5.89464 18.2653 6 18.0001 6H6.00006C5.73484 6 5.48049 5.89464 5.29295 5.70711C5.10542 5.51957 5.00006 5.26522 5.00006 5C5.00006 4.73478 5.10542 4.48043 5.29295 4.29289C5.48049 4.10536 5.73484 4 6.00006 4H18.0001Z" fill="#85CBB2"/>
<path d="M18 4C18.2652 4 18.5196 4.10536 18.7071 4.29289C18.8946 4.48043 19 4.73478 19 5C19 5.26522 18.8946 5.51957 18.7071 5.70711C18.5196 5.89464 18.2652 6 18 6H6C5.73478 6 5.48043 5.89464 5.29289 5.70711C5.10536 5.51957 5 5.26522 5 5C5 4.73478 5.10536 4.48043 5.29289 4.29289C5.48043 4.10536 5.73478 4 6 4H18Z" fill="#51B491"/>
<path d="M21.0071 19.007C21.2723 19.007 21.5267 19.1124 21.7142 19.2999C21.9018 19.4874 22.0071 19.7418 22.0071 20.007C22.0071 20.2722 21.9018 20.5266 21.7142 20.7141C21.5267 20.9016 21.2723 21.007 21.0071 21.007H3.00995C2.74473 21.007 2.49038 20.9016 2.30284 20.7141C2.11531 20.5266 2.00995 20.2722 2.00995 20.007C2.00995 19.7418 2.11531 19.4874 2.30284 19.2999C2.49038 19.1124 2.74473 19.007 3.00995 19.007H21.0071Z" fill="#51B491"/>
</g>
<defs>
<clipPath id="clip0_169_1517">
<rect width="24" height="24" fill="white"/>
</clipPath>
</defs>
</svg>
