<svg width="25" height="24" viewBox="0 0 25 24" fill="none" xmlns="http://www.w3.org/2000/svg">
<path d="M15.5052 10.0052C14.7082 10.8022 13.6272 11.25 12.5 11.25C11.3728 11.25 10.2918 10.8022 9.4948 10.0052C8.69777 9.20817 8.25 8.12717 8.25 7C8.25 5.87283 8.69777 4.79183 9.4948 3.9948C10.2918 3.19777 11.3728 2.75 12.5 2.75C13.6272 2.75 14.7082 3.19777 15.5052 3.9948C16.3022 4.79183 16.75 5.87283 16.75 7C16.75 8.12717 16.3022 9.20817 15.5052 10.0052Z" fill="#C2C4C8" stroke="#C2C4C8" stroke-width="1.5"/>
<path d="M19.6954 21.25H5.30465L5.30288 21.2499C5.29788 21.2498 5.28734 21.2494 5.27207 21.2484C5.24129 21.2463 5.19285 21.242 5.13295 21.2327C5.00941 21.2137 4.85711 21.177 4.71467 21.1112C4.57374 21.0461 4.46413 20.9627 4.38956 20.8593C4.32054 20.7636 4.25 20.6081 4.25 20.3361C4.25 19.7009 4.62321 18.2172 5.84996 16.8941C7.04675 15.6034 9.09155 14.4303 12.5 14.4303C15.9085 14.4303 17.9532 15.6034 19.15 16.8941C20.3768 18.2172 20.75 19.7009 20.75 20.3361C20.75 20.6081 20.6795 20.7636 20.6104 20.8593C20.5359 20.9627 20.4263 21.0461 20.2853 21.1112C20.1429 21.177 19.9906 21.2137 19.867 21.2327C19.8071 21.242 19.7587 21.2463 19.7279 21.2484C19.7127 21.2494 19.7021 21.2498 19.6971 21.2499C19.6964 21.25 19.6958 21.25 19.6954 21.25Z" fill="#C2C4C8" stroke="#C2C4C8" stroke-width="1.5"/>
</svg>
