<svg width="25" height="24" viewBox="0 0 25 24" fill="none" xmlns="http://www.w3.org/2000/svg">
<path d="M20.9999 20.4999L16.8982 16.3982M16.8982 16.3982C17.5998 15.6966 18.1564 14.8637 18.5361 13.947C18.9158 13.0303 19.1112 12.0478 19.1112 11.0556C19.1112 10.0633 18.9158 9.08083 18.5361 8.16413C18.1564 7.24744 17.5998 6.41451 16.8982 5.7129C16.1966 5.01129 15.3637 4.45475 14.447 4.07504C13.5303 3.69533 12.5478 3.4999 11.5555 3.4999C10.5633 3.4999 9.58081 3.69533 8.66411 4.07504C7.74742 4.45475 6.91449 5.01129 6.21288 5.7129C4.79592 7.12986 3.99988 9.05167 3.99988 11.0556C3.99988 13.0594 4.79592 14.9813 6.21288 16.3982C7.62984 17.8152 9.55165 18.6112 11.5555 18.6112C13.5594 18.6112 15.4812 17.8152 16.8982 16.3982Z" stroke="#C2C4C8" stroke-width="1.8" stroke-linecap="round" stroke-linejoin="round"/>
</svg>
