<svg width="24" height="24" viewBox="0 0 24 24" fill="none" xmlns="http://www.w3.org/2000/svg">
<path d="M9 7.5C9 6.70435 9.31607 5.94129 9.87868 5.37868C10.4413 4.81607 11.2044 4.5 12 4.5C12.7956 4.5 13.5587 4.81607 14.1213 5.37868C14.6839 5.94129 15 6.70435 15 7.5C15 8.29565 14.6839 9.05871 14.1213 9.62132C13.5587 10.1839 12.7956 10.5 12 10.5C11.2044 10.5 10.4413 10.1839 9.87868 9.62132C9.31607 9.05871 9 8.29565 9 7.5ZM18.5 5.5C17.837 5.5 17.2011 5.76339 16.7322 6.23223C16.2634 6.70107 16 7.33696 16 8C16 8.66304 16.2634 9.29893 16.7322 9.76777C17.2011 10.2366 17.837 10.5 18.5 10.5C19.163 10.5 19.7989 10.2366 20.2678 9.76777C20.7366 9.29893 21 8.66304 21 8C21 7.33696 20.7366 6.70107 20.2678 6.23223C19.7989 5.76339 19.163 5.5 18.5 5.5ZM5.5 5.5C4.83696 5.5 4.20107 5.76339 3.73223 6.23223C3.26339 6.70107 3 7.33696 3 8C3 8.66304 3.26339 9.29893 3.73223 9.76777C4.20107 10.2366 4.83696 10.5 5.5 10.5C6.16304 10.5 6.79893 10.2366 7.26777 9.76777C7.73661 9.29893 8 8.66304 8 8C8 7.33696 7.73661 6.70107 7.26777 6.23223C6.79893 5.76339 6.16304 5.5 5.5 5.5ZM9.625 12.5C9.06141 12.5 8.52091 12.7239 8.1224 13.1224C7.72388 13.5209 7.5 14.0614 7.5 14.625V16C7.5 17.1935 7.97411 18.3381 8.81802 19.182C9.66193 20.0259 10.8065 20.5 12 20.5C13.1935 20.5 14.3381 20.0259 15.182 19.182C16.0259 18.3381 16.5 17.1935 16.5 16V14.625C16.5 14.0614 16.2761 13.5209 15.8776 13.1224C15.4791 12.7239 14.9386 12.5 14.375 12.5H9.625ZM6.5 14.625C6.5 13.825 6.801 13.0945 7.296 12.5415C7.15737 12.5139 7.01636 12.5 6.875 12.5H4.125C3.56142 12.5 3.02091 12.7239 2.6224 13.1224C2.22388 13.5209 2 14.0614 2 14.625V15.5C1.99983 16.1044 2.1562 16.6986 2.45387 17.2246C2.75153 17.7507 3.18036 18.1907 3.69858 18.5018C4.2168 18.8129 4.80675 18.9845 5.41098 18.9998C6.01522 19.0152 6.61313 18.8738 7.1465 18.5895C6.72069 17.7929 6.49859 16.9033 6.5 16V14.625ZM17.5 16C17.5 16.936 17.266 17.8175 16.8535 18.5895C17.3869 18.8738 17.9848 19.0152 18.589 18.9998C19.1932 18.9845 19.7832 18.8129 20.3014 18.5018C20.8196 18.1907 21.2485 17.7507 21.5461 17.2246C21.8438 16.6986 22.0002 16.1044 22 15.5V14.625C22 14.0614 21.7761 13.5209 21.3776 13.1224C20.9791 12.7239 20.4386 12.5 19.875 12.5H17.125C16.9807 12.5003 16.8403 12.5142 16.704 12.5415C17.2174 13.1139 17.5009 13.8561 17.5 14.625V16Z" fill="#BBC9F4"/>
<path d="M9 7.5C9 6.70435 9.31607 5.94129 9.87868 5.37868C10.4413 4.81607 11.2044 4.5 12 4.5C12.7956 4.5 13.5587 4.81607 14.1213 5.37868C14.6839 5.94129 15 6.70435 15 7.5C15 8.29565 14.6839 9.05871 14.1213 9.62132C13.5587 10.1839 12.7956 10.5 12 10.5C11.2044 10.5 10.4413 10.1839 9.87868 9.62132C9.31607 9.05871 9 8.29565 9 7.5ZM9.625 12.5C9.06141 12.5 8.52091 12.7239 8.1224 13.1224C7.72388 13.5209 7.5 14.0614 7.5 14.625V16C7.5 17.1935 7.97411 18.3381 8.81802 19.182C9.66193 20.0259 10.8065 20.5 12 20.5C13.1935 20.5 14.3381 20.0259 15.182 19.182C16.0259 18.3381 16.5 17.1935 16.5 16V14.625C16.5 14.0614 16.2761 13.5209 15.8776 13.1224C15.4791 12.7239 14.9386 12.5 14.375 12.5H9.625Z" fill="#6C8AE6"/>
</svg>
