<svg
  xmlns="http://www.w3.org/2000/svg"
  width="24"
  height="24"
  viewBox="0 0 24 24"
  fill="none"
>
  <mask
    id="mask0_160_758"
    style="mask-type:alpha"
    maskUnits="userSpaceOnUse"
    x="0"
    y="0"
    width="24"
    height="24"
  >
    <rect width="24" height="24" fill="#D9D9D9" />
  </mask>
  <g mask="url(#mask0_160_758)">
    <path
      d="M11.9998 15.6765C11.8793 15.6765 11.7671 15.6573 11.6633 15.6188C11.5594 15.5803 11.4607 15.5143 11.367 15.4208L6.87276 10.9265C6.73442 10.788 6.66359 10.6139 6.66026 10.4043C6.65709 10.1948 6.72792 10.0175 6.87276 9.87252C7.01776 9.72769 7.19342 9.65527 7.39976 9.65527C7.60609 9.65527 7.78176 9.72769 7.92676 9.87252L11.9998 13.9458L16.0728 9.87252C16.2113 9.73419 16.3853 9.66336 16.595 9.66002C16.8045 9.65686 16.9818 9.72769 17.1268 9.87252C17.2716 10.0175 17.344 10.1932 17.344 10.3995C17.344 10.6059 17.2716 10.7815 17.1268 10.9265L12.6325 15.4208C12.5388 15.5143 12.4401 15.5803 12.3363 15.6188C12.2324 15.6573 12.1203 15.6765 11.9998 15.6765Z"
      fill="#46474C"
    />
  </g>
</svg>
