<svg xmlns="http://www.w3.org/2000/svg" width="18" height="18" viewBox="0 0 18 18" fill="none">
  <path d="M13.467 15.579L15.4808 8.454C15.5123 8.34239 15.5175 8.22498 15.496 8.11101C15.4745 7.99704 15.4269 7.8896 15.3569 7.79715C15.2868 7.70469 15.1963 7.62974 15.0924 7.57818C14.9885 7.52662 14.8741 7.49986 14.7581 7.5H11.2031C11.1414 7.5 11.0805 7.48608 11.0249 7.45927C10.9693 7.43246 10.9205 7.39345 10.8821 7.34515C10.8436 7.29686 10.8166 7.24051 10.803 7.18032C10.7894 7.12013 10.7895 7.05764 10.8034 6.9975L10.9909 6.186C11.1626 5.44163 11.2178 4.67475 11.1544 3.9135L11.1199 3.49988C11.0829 3.05613 10.8899 2.63986 10.575 2.325C10.2869 2.03707 9.89632 1.87523 9.489 1.875H9.399C9.15263 1.875 8.92575 2.0085 8.8065 2.22375L7.80938 4.01813C7.3624 4.82291 6.69605 5.48419 5.88788 5.925L2.64075 7.28625C2.52236 7.35085 2.42358 7.44618 2.35482 7.5622C2.28605 7.67822 2.24984 7.81063 2.25 7.9455V15.375C2.25 15.5739 2.32902 15.7647 2.46967 15.9053C2.61032 16.046 2.80109 16.125 3 16.125H12.7451C12.9084 16.125 13.0673 16.0716 13.1975 15.9731C13.3277 15.8745 13.4226 15.7361 13.467 15.579Z" fill="#DBDCDF" stroke="#DBDCDF" stroke-width="1.5" stroke-linecap="round" stroke-linejoin="round"/>
</svg>