<svg xmlns="http://www.w3.org/2000/svg" width="18" height="18" viewBox="0 0 18 18" fill="none">
  <path fill-rule="evenodd" clip-rule="evenodd" d="M8.99999 1.69669C5.02358 1.69669 1.79999 4.92028 1.79999 8.89669C1.79999 10.1398 2.11545 11.3112 2.67069 12.3326L2.14358 15.1677C2.12875 15.2478 2.13362 15.3304 2.15779 15.4082C2.18196 15.486 2.2247 15.5567 2.28231 15.6144C2.33993 15.672 2.41069 15.7147 2.4885 15.7389C2.56631 15.7631 2.64884 15.7679 2.72896 15.7531L5.56408 15.2253C6.61835 15.7989 7.79979 16.0985 8.99999 16.0967C12.9764 16.0967 16.2 12.8731 16.2 8.89669C16.2 4.92028 12.9764 1.69669 8.99999 1.69669Z" fill="#DBDCDF"/>
</svg>