<svg width="24" height="24" viewBox="0 0 24 24" fill="none" xmlns="http://www.w3.org/2000/svg">
<path d="M18.9202 3.97127C20.7169 5.76779 21.7445 8.19265 21.7857 10.7331C21.8269 13.2736 20.8785 15.7305 19.1409 17.5843L18.9202 17.8126L14.3064 22.4253C13.721 23.0104 12.9351 23.3511 12.1079 23.3783C11.2807 23.4056 10.474 23.1174 9.85136 22.5721L9.69478 22.4253L5.0799 17.8116C3.24457 15.9762 2.21349 13.487 2.21349 10.8914C2.21349 8.29586 3.24457 5.80661 5.0799 3.97127C6.91524 2.13594 9.40449 1.10486 12 1.10486C14.5956 1.10486 17.0848 2.13594 18.9202 3.97127ZM12 7.62925C11.5716 7.62925 11.1475 7.71363 10.7517 7.87757C10.3559 8.04151 9.99626 8.2818 9.69334 8.58472C9.39042 8.88764 9.15013 9.24726 8.9862 9.64304C8.82226 10.0388 8.73788 10.463 8.73788 10.8914C8.73788 11.3198 8.82226 11.744 8.9862 12.1398C9.15013 12.5356 9.39042 12.8952 9.69334 13.1981C9.99626 13.501 10.3559 13.7413 10.7517 13.9053C11.1475 14.0692 11.5716 14.1536 12 14.1536C12.8652 14.1536 13.695 13.8099 14.3067 13.1981C14.9185 12.5863 15.2622 11.7566 15.2622 10.8914C15.2622 10.0262 14.9185 9.19649 14.3067 8.58472C13.695 7.97294 12.8652 7.62925 12 7.62925Z" fill="white"/>
</svg>
