<svg xmlns="http://www.w3.org/2000/svg" width="24" height="24" viewBox="0 0 24 24" fill="none">
  <path d="M14.94 19.2024C14.8023 19.8806 14.4344 20.4903 13.8986 20.9282C13.3627 21.3662 12.692 21.6054 12 21.6054C11.308 21.6054 10.6373 21.3662 10.1014 20.9282C9.56564 20.4903 9.19771 19.8806 9.06 19.2024H14.94ZM11.9976 2.39999C15.7764 2.39999 18.8904 5.20199 19.1784 8.82599L19.194 9.09359L19.2 9.36239L19.1988 13.6896L20.3436 16.794L20.3736 16.896L20.3928 16.9992L20.3988 17.106C20.3988 17.484 20.1636 17.814 19.7724 17.9544L19.6356 17.994L19.4988 18.006H4.5012C4.3952 18.0045 4.29017 17.9854 4.1904 17.9496C3.846 17.8236 3.6192 17.5032 3.612 17.0904L3.6168 16.95L3.6576 16.794L4.7976 13.6932L4.8 9.35159L4.8048 9.08159C4.9524 5.34119 8.1252 2.39999 11.9976 2.39999Z" fill="#C2C4C8"/>
</svg>