<svg xmlns="http://www.w3.org/2000/svg" width="18" height="18" viewBox="0 0 18 18" fill="none">
  <path d="M9.96718 3.5975C9.70169 3.37487 9.35739 3.25171 9.00048 3.25171C8.64358 3.25171 8.29927 3.37487 8.03379 3.5975L2.73021 8.0453C2.57925 8.17178 2.45847 8.32649 2.37574 8.49937C2.29301 8.67226 2.25017 8.85945 2.25 9.0488V15.3983C2.25 15.7563 2.40239 16.0997 2.67365 16.3529C2.94491 16.6061 3.31281 16.7483 3.69643 16.7483H5.625C6.00862 16.7483 6.37652 16.6061 6.64778 16.3529C6.91904 16.0997 7.07143 15.7563 7.07143 15.3983V11.7983C7.07143 11.6789 7.12223 11.5645 7.21264 11.4801C7.30306 11.3957 7.4257 11.3483 7.55357 11.3483H10.4464C10.5743 11.3483 10.6969 11.3957 10.7874 11.4801C10.8778 11.5645 10.9286 11.6789 10.9286 11.7983V15.3983C10.9286 15.7563 11.081 16.0997 11.3522 16.3529C11.6235 16.6061 11.9914 16.7483 12.375 16.7483H14.3036C14.6872 16.7483 15.0551 16.6061 15.3264 16.3529C15.5976 16.0997 15.75 15.7563 15.75 15.3983V9.0488C15.75 8.85952 15.7073 8.67236 15.6247 8.49948C15.5421 8.3266 15.4215 8.17186 15.2708 8.0453L9.96718 3.5975Z" fill="#BBC9F4"/>
  <path d="M16.5 8.49982L9.65493 2.56742C9.27907 2.24168 8.72093 2.24168 8.34507 2.56742L1.5 8.49982" stroke="#6C8AE6" stroke-width="2" stroke-linecap="round"/>
</svg>