<svg xmlns="http://www.w3.org/2000/svg" width="14" height="16" viewBox="0 0 14 16" fill="none">
  <g clip-path="url(#clip0_123_1326)">
    <path d="M13.0335 14.375H12.4643V1.39733C12.4643 1.0201 12.1585 0.714294 11.7812 0.714294H2.21875C1.84152 0.714294 1.53571 1.0201 1.53571 1.39733V14.375H0.966518C0.777915 14.375 0.625 14.5279 0.625 14.7165V15.2857H13.375V14.7165C13.375 14.5279 13.2221 14.375 13.0335 14.375ZM4.26786 2.87724C4.26786 2.68864 4.42077 2.53572 4.60938 2.53572H5.74777C5.93637 2.53572 6.08929 2.68864 6.08929 2.87724V4.01563C6.08929 4.20424 5.93637 4.35715 5.74777 4.35715H4.60938C4.42077 4.35715 4.26786 4.20424 4.26786 4.01563V2.87724ZM4.26786 5.60938C4.26786 5.42078 4.42077 5.26787 4.60938 5.26787H5.74777C5.93637 5.26787 6.08929 5.42078 6.08929 5.60938V6.74778C6.08929 6.93638 5.93637 7.08929 5.74777 7.08929H4.60938C4.42077 7.08929 4.26786 6.93638 4.26786 6.74778V5.60938ZM5.74777 9.82144H4.60938C4.42077 9.82144 4.26786 9.66852 4.26786 9.47992V8.34153C4.26786 8.15292 4.42077 8.00001 4.60938 8.00001H5.74777C5.93637 8.00001 6.08929 8.15292 6.08929 8.34153V9.47992C6.08929 9.66852 5.93637 9.82144 5.74777 9.82144ZM7.91071 14.375H6.08929V11.9844C6.08929 11.7958 6.2422 11.6429 6.4308 11.6429H7.5692C7.7578 11.6429 7.91071 11.7958 7.91071 11.9844V14.375ZM9.73214 9.47992C9.73214 9.66852 9.57923 9.82144 9.39062 9.82144H8.25223C8.06363 9.82144 7.91071 9.66852 7.91071 9.47992V8.34153C7.91071 8.15292 8.06363 8.00001 8.25223 8.00001H9.39062C9.57923 8.00001 9.73214 8.15292 9.73214 8.34153V9.47992ZM9.73214 6.74778C9.73214 6.93638 9.57923 7.08929 9.39062 7.08929H8.25223C8.06363 7.08929 7.91071 6.93638 7.91071 6.74778V5.60938C7.91071 5.42078 8.06363 5.26787 8.25223 5.26787H9.39062C9.57923 5.26787 9.73214 5.42078 9.73214 5.60938V6.74778ZM9.73214 4.01563C9.73214 4.20424 9.57923 4.35715 9.39062 4.35715H8.25223C8.06363 4.35715 7.91071 4.20424 7.91071 4.01563V2.87724C7.91071 2.68864 8.06363 2.53572 8.25223 2.53572H9.39062C9.57923 2.53572 9.73214 2.68864 9.73214 2.87724V4.01563Z" fill="#85CBB2"/>
  </g>
  <defs>
    <clipPath id="clip0_123_1326">
      <rect width="12.75" height="14.5714" fill="white" transform="translate(0.625 0.714294)"/>
    </clipPath>
  </defs>
</svg>