<svg xmlns="http://www.w3.org/2000/svg" width="18" height="18" viewBox="0 0 18 18" fill="none">
  <path d="M2.25 8.25L4.11 3.909C4.22574 3.639 4.41822 3.40893 4.66354 3.24734C4.90886 3.08574 5.19624 2.99974 5.49 3H12.5115C12.805 3.00003 13.0921 3.08617 13.3371 3.24775C13.5821 3.40932 13.7744 3.63924 13.89 3.909L15.75 8.25M2.25 8.25H15.75M2.25 8.25V13.5M15.75 8.25V13.5M2.25 13.5V13.875C2.25 14.1734 2.36853 14.4595 2.5795 14.6705C2.79048 14.8815 3.07663 15 3.375 15C3.67337 15 3.95952 14.8815 4.1705 14.6705C4.38147 14.4595 4.5 14.1734 4.5 13.875V13.5M2.25 13.5H4.5M15.75 13.5V13.875C15.75 14.1734 15.6315 14.4595 15.4205 14.6705C15.2095 14.8815 14.9234 15 14.625 15C14.3266 15 14.0405 14.8815 13.8295 14.6705C13.6185 14.4595 13.5 14.1734 13.5 13.875V13.5M15.75 13.5H13.5M13.5 13.5H4.5" stroke="#A391EC" stroke-width="1.5" stroke-linecap="round" stroke-linejoin="round"/>
  <path fill-rule="evenodd" clip-rule="evenodd" d="M2.25 8.25H15.75V13.5H2.25V8.25ZM4.5 10.5C4.5 10.3011 4.57902 10.1103 4.71967 9.96967C4.86032 9.82902 5.05109 9.75 5.25 9.75C5.44891 9.75 5.64043 9.82902 5.78108 9.96967C5.92173 10.1103 6.00075 10.3011 6.00075 10.5C6.00075 10.6989 5.92173 10.8897 5.78108 11.0303C5.64043 11.171 5.44966 11.25 5.25075 11.25C5.05184 11.25 4.86032 11.171 4.71967 11.0303C4.57902 10.8897 4.5 10.6989 4.5 10.5ZM12.75 9.75C12.5511 9.75 12.3603 9.82902 12.2197 9.96967C12.079 10.1103 12 10.3011 12 10.5C12 10.6989 12.079 10.8897 12.2197 11.0303C12.3603 11.171 12.5511 11.25 12.75 11.25C12.9489 11.25 13.1404 11.171 13.2811 11.0303C13.4217 10.8897 13.5007 10.6989 13.5007 10.5C13.5007 10.3011 13.4217 10.1103 13.2811 9.96967C13.1404 9.82902 12.9489 9.75 12.75 9.75Z" fill="#A391EC"/>
</svg>