<svg xmlns="http://www.w3.org/2000/svg" width="25" height="24" viewBox="0 0 25 24" fill="none">
  <mask id="mask0_131_996" style="mask-type:alpha" maskUnits="userSpaceOnUse" x="0" y="0" width="25" height="24">
    <rect x="0.5" width="24" height="24" fill="#D9D9D9"/>
  </mask>
  <g mask="url(#mask0_131_996)">
    <path d="M7.87301 12.75L13.0423 17.9193C13.1909 18.0679 13.2643 18.2419 13.2625 18.4413C13.2605 18.6406 13.182 18.8178 13.027 18.973C12.8718 19.1178 12.6962 19.1928 12.5 19.198C12.3038 19.2032 12.1282 19.1282 11.973 18.973L5.63276 12.6328C5.5391 12.5391 5.4731 12.4403 5.43476 12.3365C5.39626 12.2327 5.37701 12.1205 5.37701 12C5.37701 11.8795 5.39626 11.7673 5.43476 11.6635C5.4731 11.5597 5.5391 11.4609 5.63276 11.3673L11.973 5.027C12.1115 4.8885 12.283 4.81767 12.4875 4.8145C12.692 4.81133 12.8718 4.88217 13.027 5.027C13.182 5.18217 13.2595 5.36033 13.2595 5.5615C13.2595 5.76283 13.182 5.94108 13.027 6.09625L7.87301 11.25H19.25C19.4628 11.25 19.641 11.3218 19.7845 11.4655C19.9282 11.609 20 11.7872 20 12C20 12.2128 19.9282 12.391 19.7845 12.5345C19.641 12.6782 19.4628 12.75 19.25 12.75H7.87301Z" fill="#46474C"/>
  </g>
</svg>