<svg width="24" height="24" viewBox="0 0 24 24" fill="none" xmlns="http://www.w3.org/2000/svg">
<mask id="mask0_169_3109" style="mask-type:alpha" maskUnits="userSpaceOnUse" x="0" y="0" width="24" height="24">
<rect width="24" height="24" fill="#D9D9D9"/>
</mask>
<g mask="url(#mask0_169_3109)">
<path d="M10.7042 13.3947L9.03119 11.7464C8.89269 11.6081 8.7436 11.5373 8.58394 11.5339C8.42444 11.5308 8.27219 11.6016 8.12719 11.7464C7.98235 11.8914 7.90994 12.0463 7.90994 12.2109C7.90994 12.3756 7.98235 12.5304 8.12719 12.6754L10.1464 14.6947C10.3106 14.8587 10.4965 14.9407 10.7042 14.9407C10.9119 14.9407 11.0978 14.8587 11.2619 14.6947L15.8504 10.1062C15.9888 9.96769 16.0596 9.81444 16.0629 9.64644C16.0661 9.4786 15.9953 9.32219 15.8504 9.17719C15.7054 9.03235 15.5548 8.95994 15.3984 8.95994C15.2421 8.95994 15.0914 9.03235 14.9464 9.17719L10.7042 13.3947ZM12.0002 21.0984C10.7529 21.0984 9.5761 20.8616 8.46994 20.3879C7.36377 19.9143 6.3956 19.2625 5.56544 18.4327C4.73527 17.6029 4.08319 16.6351 3.60919 15.5294C3.13535 14.4238 2.89844 13.2474 2.89844 12.0002C2.89844 10.7362 3.13527 9.55527 3.60894 8.45744C4.0826 7.3596 4.73435 6.3956 5.56419 5.56544C6.39402 4.73527 7.36177 4.08319 8.46744 3.60919C9.5731 3.13535 10.7495 2.89844 11.9967 2.89844C13.2607 2.89844 14.4416 3.13527 15.5394 3.60894C16.6373 4.0826 17.6013 4.73435 18.4314 5.56419C19.2616 6.39402 19.9137 7.3576 20.3877 8.45494C20.8615 9.55227 21.0984 10.7329 21.0984 11.9967C21.0984 13.244 20.8616 14.4208 20.3879 15.5269C19.9143 16.6331 19.2625 17.6013 18.4327 18.4314C17.6029 19.2616 16.6393 19.9137 15.5419 20.3877C14.4446 20.8615 13.264 21.0984 12.0002 21.0984Z" fill="#DBDCDF"/>
</g>
</svg>
