<svg xmlns="http://www.w3.org/2000/svg" width="24" height="24" viewBox="0 0 24 24" fill="none">
  <path d="M12 5.71875C16.1292 5.71875 19.4765 9.06609 19.4765 13.1953V18.6562C19.4765 18.8552 19.3975 19.0459 19.2569 19.1866C19.1162 19.3272 18.9255 19.4062 18.7265 19.4062H5.27341C5.0745 19.4062 4.88374 19.3272 4.74308 19.1866C4.60243 19.0459 4.52341 18.8552 4.52341 18.6562V13.1953C4.52341 9.06609 7.87076 5.71875 12 5.71875ZM11.3437 1.59375H12.6562C12.706 1.59375 12.7536 1.6135 12.7888 1.64867C12.824 1.68383 12.8437 1.73152 12.8437 1.78125V4.03125C12.8437 4.08098 12.824 4.12867 12.7888 4.16383C12.7536 4.199 12.706 4.21875 12.6562 4.21875H11.3437C11.294 4.21875 11.2463 4.199 11.2111 4.16383C11.176 4.12867 11.1562 4.08098 11.1562 4.03125V1.78125C11.1562 1.73152 11.176 1.68383 11.2111 1.64867C11.2463 1.6135 11.294 1.59375 11.3437 1.59375ZM4.15427 4.49203C4.17169 4.4746 4.19237 4.46077 4.21513 4.45133C4.23789 4.4419 4.26229 4.43704 4.28693 4.43704C4.31157 4.43704 4.33597 4.4419 4.35873 4.45133C4.38149 4.46077 4.40217 4.4746 4.41959 4.49203L6.01052 6.08297C6.04566 6.11813 6.0654 6.1658 6.0654 6.21551C6.0654 6.26521 6.04566 6.31289 6.01052 6.34805L5.0824 7.27617C5.04724 7.31131 4.99957 7.33105 4.94986 7.33105C4.90015 7.33105 4.85248 7.31131 4.81732 7.27617L3.22638 5.68523C3.19125 5.65007 3.17151 5.6024 3.17151 5.5527C3.17151 5.50299 3.19125 5.45532 3.22638 5.42016L4.15427 4.49203ZM19.848 4.49203L20.7761 5.42016C20.8112 5.45531 20.8309 5.50293 20.8309 5.55258C20.8309 5.60223 20.8112 5.64985 20.7761 5.685L19.1852 7.27641C19.1678 7.29384 19.1471 7.30767 19.1244 7.3171C19.1016 7.32654 19.0772 7.3314 19.0526 7.3314C19.0279 7.3314 19.0035 7.32654 18.9808 7.3171C18.958 7.30767 18.9373 7.29384 18.9199 7.27641L17.9918 6.34828C17.9743 6.33087 17.9605 6.31019 17.9511 6.28743C17.9416 6.26466 17.9368 6.24027 17.9368 6.21563C17.9368 6.19098 17.9416 6.16659 17.9511 6.14382C17.9605 6.12106 17.9743 6.10038 17.9918 6.08297L19.5829 4.49203C19.6181 4.45689 19.6658 4.43716 19.7155 4.43716C19.7652 4.43716 19.8129 4.45689 19.848 4.49203ZM4.49998 20.9062H19.5C19.6989 20.9062 19.8897 20.9853 20.0303 21.1259C20.171 21.2666 20.25 21.4573 20.25 21.6562V22.2188C20.25 22.2685 20.2302 22.3162 20.1951 22.3513C20.1599 22.3865 20.1122 22.4062 20.0625 22.4062H3.93748C3.88775 22.4062 3.84006 22.3865 3.80489 22.3513C3.76973 22.3162 3.74998 22.2685 3.74998 22.2188V21.6562C3.74998 21.4573 3.82899 21.2666 3.96965 21.1259C4.1103 20.9853 4.30106 20.9062 4.49998 20.9062ZM7.96873 13.4766V19.4062H9.46873V13.4766H7.96873Z" fill="#FF5253"/>
  <path d="M4.5 20.9062H19.5C19.6989 20.9062 19.8897 21.0116 20.0303 21.1991C20.171 21.3867 20.25 21.641 20.25 21.9062V22.6562C20.25 22.7226 20.2302 22.7861 20.1951 22.833C20.1599 22.8799 20.1122 22.9062 20.0625 22.9062H3.9375C3.88777 22.9062 3.84008 22.8799 3.80492 22.833C3.76975 22.7861 3.75 22.7226 3.75 22.6562V21.9062C3.75 21.641 3.82902 21.3867 3.96967 21.1991C4.11032 21.0116 4.30109 20.9062 4.5 20.9062Z" fill="#AEB0B6"/>
</svg>