<svg width="67" height="24" viewBox="0 0 67 24" fill="none" xmlns="http://www.w3.org/2000/svg">
<path d="M11.0161 24C8.42138 24 6.25775 23.0711 4.52517 21.2134C2.7926 19.3557 1.92593 17.0435 1.92517 14.2767C1.92517 12.3004 2.6782 9.58221 4.18426 7.26047C5.69032 4.93873 7.96759 2.42372 11.0161 0C14.0653 2.42292 16.343 4.93794 17.849 7.26047C19.3551 9.583 20.1077 12.3012 20.107 14.2767C20.107 17.0435 19.2407 19.3557 17.5081 21.2134C15.7755 23.0711 13.6115 24 11.0161 24Z" fill="#BFD5F0"/>
<mask id="mask0_122_264" style="mask-type:alpha" maskUnits="userSpaceOnUse" x="1" y="0" width="20" height="24">
<path d="M11.0161 24C8.42138 24 6.25775 23.0711 4.52517 21.2134C2.7926 19.3557 1.92593 17.0435 1.92517 14.2767C1.92517 12.3004 2.6782 9.58221 4.18426 7.26047C5.69032 4.93873 7.96759 2.42372 11.0161 0C14.0653 2.42292 16.343 4.93794 17.849 7.26047C19.3551 9.583 20.1077 12.3012 20.107 14.2767C20.107 17.0435 19.2407 19.3557 17.5081 21.2134C15.7755 23.0711 13.6115 24 11.0161 24Z" fill="#476DE0"/>
</mask>
<g mask="url(#mask0_122_264)">
<path d="M16.4144 16.1005V11.6937H11.7501V13.023L8.56942 10.6866L-4.52148 22.1923H-0.635121V32.1639H6.26829V24.4934H10.8706V32.1639H17.774V22.1923H23.024L16.4144 16.1005Z" fill="white"/>
<path d="M15.2144 16.828V12.9011L12.9501 12.9011V15.6705L8.56942 12.3741L-4.52148 23.8798H-0.635121V33.8514H6.26829V26.1809H10.8706V33.8514H17.774V23.8798H23.024L15.2144 16.828Z" fill="#476DE0"/>
</g>
<path d="M1.47318 18.6043L2.96632 17.3066L3.56049 19.8678L1.94549 19.8678C1.27949 19.8678 0.970499 19.0412 1.47318 18.6043Z" fill="#476DE0"/>
<path d="M47.4897 9.49324C47.4897 8.7585 47.7058 8.02375 48.0732 7.35383H46.3228V4.22036H53.9728V1.80002H58.5109V4.22036H66.1393V7.35383H64.3889C64.7562 8.02375 64.9723 8.7585 64.9723 9.49324C64.9723 12.4322 63.0923 14.6797 59.6346 14.6797H52.8274C49.3698 14.6797 47.4897 12.4322 47.4897 9.49324ZM53.8647 11.5678H58.5973C60.1749 11.5678 60.8664 10.5521 60.8664 9.4068C60.8664 8.23985 60.1317 7.24578 58.5541 7.24578H53.9079C52.3304 7.24578 51.5956 8.23985 51.5956 9.4068C51.5956 10.5521 52.2872 11.5678 53.8647 11.5678ZM58.338 15.4144V18.2238H66.1825V21.5517H46.3011V18.2238H54.1456V15.4144H58.338Z" fill="#37383C"/>
<path d="M34.6317 8.90976C32.6219 11.4381 29.4236 12.9076 25.469 13.1021V9.6445C29.8558 9.01781 32.5355 6.48942 32.7084 2.12416H36.9008C36.8791 3.42077 36.6847 4.63094 36.3173 5.73306C40.0774 5.77628 43.9673 8.06696 44.4859 12.9292H40.3368C39.7317 10.4225 37.3762 8.84493 34.6317 8.90976ZM24.9071 14.1178H44.7885V17.4458H36.944V22.2H32.7516V17.4458H24.9071V14.1178Z" fill="#37383C"/>
</svg>
