<svg xmlns="http://www.w3.org/2000/svg" width="28" height="28" viewBox="0 0 28 28" fill="none">
  <path d="M5.70728 11.2163C5.70728 10.7473 6.08412 10.367 6.54962 10.367H11.0483C11.5149 10.367 11.8918 10.7473 11.8918 11.2163C11.8922 11.3276 11.8708 11.4378 11.8286 11.5407C11.7865 11.6437 11.7245 11.7373 11.6462 11.8163C11.5679 11.8953 11.4747 11.958 11.3721 12.001C11.2696 12.044 11.1595 12.0664 11.0483 12.0668H6.54962C6.32518 12.0656 6.11041 11.9753 5.95247 11.8159C5.79454 11.6564 5.70635 11.4408 5.70728 11.2163Z" fill="#476DE0"/>
  <path fill-rule="evenodd" clip-rule="evenodd" d="M24.7193 11.6714C24.6461 11.6675 24.5684 11.6659 24.4859 11.6667H21.2508C18.6013 11.6667 16.3333 13.692 16.3333 16.3334C16.3333 18.9747 18.6013 21 21.2508 21H24.4859C24.5684 21.0008 24.6461 20.9993 24.7193 20.9954C25.7961 20.93 26.7481 20.1122 26.8286 18.9689C26.8333 18.8942 26.8333 18.8137 26.8333 18.739V13.9277C26.8333 13.853 26.8333 13.7725 26.8286 13.6979C26.7481 12.5545 25.7961 11.7379 24.7193 11.6714ZM20.9661 17.5782C21.6474 17.5782 22.2004 17.0205 22.2004 16.3334C22.2004 15.645 21.6474 15.0885 20.9661 15.0885C20.2848 15.0885 19.7294 15.6462 19.7294 16.3334C19.7294 17.0217 20.2836 17.5782 20.9661 17.5782Z" fill="#476DE0"/>
  <path opacity="0.5" d="M24.6633 11.669C24.6633 10.2911 24.6119 8.81298 23.7323 7.75481C23.646 7.65138 23.5553 7.55173 23.4604 7.45615C22.5866 6.58348 21.4794 6.19615 20.1121 6.01181C18.7821 5.83331 17.0846 5.83331 14.9403 5.83331H12.4763C10.3319 5.83331 8.63325 5.83331 7.30325 6.01181C5.93592 6.19615 4.82875 6.58348 3.95492 7.45615C3.08225 8.32998 2.69492 9.43715 2.51059 10.8045C2.33325 12.1345 2.33325 13.832 2.33325 15.9763V16.107C2.33325 18.2513 2.33325 19.95 2.51175 21.2788C2.69609 22.6461 3.08342 23.7533 3.95609 24.6271C4.82992 25.4998 5.93709 25.8871 7.30442 26.0715C8.63442 26.25 10.3319 26.25 12.4763 26.25H14.9403C17.0846 26.25 18.7833 26.25 20.1121 26.0715C21.4794 25.8871 22.5866 25.4998 23.4604 24.6271C23.6976 24.3876 23.9022 24.1309 24.0741 23.8571C24.5991 23.0171 24.6621 21.9881 24.6621 20.9988L24.4871 21H21.2508C18.6013 21 16.3333 18.9746 16.3333 16.3333C16.3333 13.692 18.6013 11.6666 21.2508 11.6666H24.4859C24.5474 11.6666 24.6073 11.6674 24.6633 11.669Z" fill="#476DE0"/>
  <path d="M11.7844 3.00063L9.33323 4.6573L7.3114 6.01063C8.63907 5.8333 10.3354 5.8333 12.4762 5.8333H14.9402C17.0846 5.8333 18.7832 5.8333 20.1121 6.0118C20.3796 6.0468 20.6371 6.09113 20.8844 6.1448L18.6666 4.66663L16.2014 3.00063C15.547 2.5657 14.7787 2.33368 13.9929 2.33368C13.2071 2.33368 12.4388 2.5657 11.7844 3.00063Z" fill="#476DE0"/>
</svg>