<svg width="16" height="16" viewBox="0 0 16 16" fill="none" xmlns="http://www.w3.org/2000/svg">
<path d="M12.9498 3.55032C11.8082 2.40197 10.3012 1.68858 8.68944 1.53344C8.64038 1.52834 8.59388 1.50899 8.55568 1.47778C8.51747 1.44657 8.48924 1.40487 8.47444 1.35782C8.44494 1.25478 8.38269 1.16414 8.2971 1.09962C8.21151 1.0351 8.10725 1.00021 8.00007 1.00021C7.89288 1.00021 7.78862 1.0351 7.70303 1.09962C7.61744 1.16414 7.55519 1.25478 7.52569 1.35782C7.51089 1.40487 7.48266 1.44657 7.44445 1.47778C7.40625 1.50899 7.35975 1.52834 7.31069 1.53344C5.58444 1.70427 3.98311 2.50998 2.81714 3.79437C1.65117 5.07876 1.00364 6.75032 1.00006 8.485C0.998712 8.57038 1.0187 8.65473 1.05821 8.73042C1.09772 8.80611 1.1555 8.87074 1.22631 8.91844C1.32243 8.98127 1.43723 9.00911 1.55145 8.99727C1.66566 8.98543 1.77232 8.93465 1.8535 8.85344C2.15726 8.54979 2.56908 8.37906 2.99858 8.37871C3.42809 8.37836 3.84018 8.54842 4.14444 8.85157C4.19042 8.8984 4.2452 8.93569 4.30563 8.96128C4.36607 8.98688 4.43096 9.00028 4.49659 9.00071C4.56222 9.00115 4.62729 8.98861 4.68806 8.96382C4.74882 8.93903 4.80409 8.90247 4.85069 8.85626C5.18281 8.52572 5.62255 8.32539 6.08991 8.29173C6.55727 8.25806 7.02119 8.39329 7.39725 8.67282C7.42919 8.69682 7.45511 8.72792 7.47295 8.76366C7.49079 8.7994 7.50008 8.83881 7.50007 8.87876V13.4856C7.50007 13.7544 7.29382 13.9856 7.02538 13.9994C6.95767 14.0028 6.88997 13.9924 6.8264 13.9689C6.76283 13.9453 6.70471 13.9091 6.65557 13.8624C6.60644 13.8157 6.56731 13.7595 6.54058 13.6972C6.51385 13.6349 6.50006 13.5678 6.50006 13.5C6.50008 13.4336 6.48685 13.3678 6.46116 13.3065C6.43546 13.2453 6.39782 13.1898 6.35043 13.1432C6.30304 13.0967 6.24684 13.06 6.18513 13.0354C6.12342 13.0108 6.05742 12.9988 5.991 13C5.70975 13.005 5.49413 13.2534 5.50038 13.5344C5.50971 13.9227 5.66912 14.2923 5.94514 14.5655C6.22116 14.8388 6.59231 14.9945 6.98069 15C7.82069 15.0106 8.50007 14.3147 8.50007 13.4747V8.87876C8.50005 8.83881 8.50934 8.7994 8.52718 8.76366C8.54502 8.72792 8.57094 8.69682 8.60288 8.67282C8.97839 8.3937 9.44152 8.25844 9.90824 8.29158C10.3749 8.32472 10.8143 8.52406 11.1466 8.85344C11.2404 8.94714 11.3675 8.99977 11.5001 8.99977C11.6326 8.99977 11.7597 8.94714 11.8535 8.85344C12.1577 8.54953 12.5701 8.37881 13.0001 8.37881C13.4301 8.37881 13.8424 8.54953 14.1466 8.85344C14.2254 8.93227 14.3284 8.98249 14.439 8.99614C14.5496 9.00978 14.6616 8.98607 14.7573 8.92876C14.8327 8.88208 14.8947 8.81663 14.9373 8.73879C14.9799 8.66095 15.0015 8.5734 15.0001 8.48469C15.0005 7.56765 14.8196 6.65957 14.4677 5.81273C14.1159 4.96588 13.6 4.19699 12.9498 3.55032Z" fill="#6647E0"/>
</svg>
