<svg xmlns="http://www.w3.org/2000/svg" width="20" height="21" viewBox="0 0 20 21" fill="none">
  <path d="M10 16.3333C10.2041 16.3334 10.4011 16.4083 10.5537 16.5439C10.7062 16.6796 10.8036 16.8665 10.8275 17.0692L10.8333 17.1667V18C10.8331 18.2124 10.7518 18.4167 10.606 18.5711C10.4602 18.7256 10.2609 18.8185 10.0489 18.831C9.83681 18.8434 9.62803 18.7744 9.46515 18.6381C9.30227 18.5018 9.1976 18.3084 9.17251 18.0975L9.16668 18V17.1667C9.16668 16.9457 9.25448 16.7337 9.41076 16.5774C9.56704 16.4211 9.779 16.3333 10 16.3333ZM15.2608 14.5917L15.3392 14.6608L15.9225 15.2442C16.072 15.3941 16.1587 15.5954 16.1652 15.807C16.1717 16.0186 16.0973 16.2248 15.9573 16.3836C15.8173 16.5424 15.6221 16.6419 15.4113 16.662C15.2005 16.6821 14.99 16.6212 14.8225 16.4917L14.7442 16.4225L14.1608 15.8392C14.017 15.6956 13.9306 15.5045 13.9179 15.3017C13.9051 15.0989 13.9669 14.8984 14.0916 14.738C14.2163 14.5776 14.3954 14.4682 14.595 14.4305C14.7947 14.3928 15.0012 14.4294 15.1758 14.5333L15.2608 14.5917ZM5.83918 14.6608C5.98266 14.8043 6.06885 14.9952 6.08159 15.1978C6.09432 15.4003 6.03272 15.6005 5.90835 15.7608L5.83918 15.8392L5.25585 16.4225C5.10588 16.572 4.90465 16.6587 4.69303 16.6652C4.4814 16.6717 4.27525 16.5973 4.11645 16.4573C3.95764 16.3173 3.85809 16.122 3.83801 15.9113C3.81794 15.7005 3.87884 15.49 4.00835 15.3225L4.07751 15.2442L4.66085 14.6608C4.81712 14.5046 5.02904 14.4168 5.25001 14.4168C5.47098 14.4168 5.68291 14.5046 5.83918 14.6608ZM3.33335 9.66667C3.54575 9.6669 3.75004 9.74823 3.90449 9.89404C4.05893 10.0398 4.15187 10.2391 4.16432 10.4512C4.17677 10.6632 4.10778 10.872 3.97146 11.0349C3.83513 11.1977 3.64176 11.3024 3.43085 11.3275L3.33335 11.3333H2.50001C2.28761 11.3331 2.08332 11.2518 1.92887 11.106C1.77443 10.9602 1.68148 10.7609 1.66904 10.5488C1.65659 10.3368 1.72557 10.128 1.8619 9.96514C1.99823 9.80226 2.1916 9.69759 2.40251 9.6725L2.50001 9.66667H3.33335ZM17.5 9.66667C17.7124 9.6669 17.9167 9.74823 18.0712 9.89404C18.2256 10.0398 18.3185 10.2391 18.331 10.4512C18.3434 10.6632 18.2745 10.872 18.1381 11.0349C18.0018 11.1977 17.8084 11.3024 17.5975 11.3275L17.5 11.3333H16.6667C16.4543 11.3331 16.25 11.2518 16.0955 11.106C15.9411 10.9602 15.8482 10.7609 15.8357 10.5488C15.8233 10.3368 15.8922 10.128 16.0286 9.96514C16.1649 9.80226 16.3583 9.69759 16.5692 9.6725L16.6667 9.66667H17.5ZM5.17751 4.50833L5.25585 4.5775L5.83918 5.16083C5.98864 5.3108 6.07541 5.51203 6.08187 5.72365C6.08833 5.93528 6.014 6.14143 5.87397 6.30023C5.73394 6.45904 5.53872 6.55859 5.32795 6.57867C5.11718 6.59874 4.90667 6.53784 4.73918 6.40833L4.66085 6.33917L4.07751 5.75583C3.93425 5.61223 3.84829 5.42131 3.83573 5.21886C3.82318 5.01641 3.8849 4.81633 4.00931 4.65613C4.13373 4.49593 4.31231 4.38661 4.51157 4.34866C4.71083 4.31071 4.91709 4.34674 5.09168 4.45L5.17751 4.50833ZM15.9225 4.5775C16.066 4.72099 16.1522 4.91191 16.1649 5.11443C16.1777 5.31695 16.1161 5.51716 15.9917 5.6775L15.9225 5.75583L15.3392 6.33917C15.1892 6.48862 14.988 6.5754 14.7764 6.58186C14.5647 6.58832 14.3586 6.51399 14.1998 6.37396C14.041 6.23393 13.9414 6.03871 13.9213 5.82794C13.9013 5.61717 13.9622 5.40666 14.0917 5.23917L14.1608 5.16083L14.7442 4.5775C14.9005 4.42127 15.1124 4.33351 15.3333 4.33351C15.5543 4.33351 15.7662 4.42127 15.9225 4.5775ZM10 2.16667C10.2041 2.16669 10.4011 2.24163 10.5537 2.37726C10.7062 2.5129 10.8036 2.69979 10.8275 2.9025L10.8333 3V3.83333C10.8331 4.04573 10.7518 4.25003 10.606 4.40447C10.4602 4.55892 10.2609 4.65186 10.0489 4.66431C9.83681 4.67676 9.62803 4.60777 9.46515 4.47145C9.30227 4.33512 9.1976 4.14175 9.17251 3.93083L9.16668 3.83333V3C9.16668 2.77899 9.25448 2.56702 9.41076 2.41074C9.56704 2.25446 9.779 2.16667 10 2.16667ZM10 6.33333C10.8164 6.33329 11.6148 6.57307 12.2961 7.02292C12.9774 7.47276 13.5115 8.11283 13.8321 8.86363C14.1528 9.61444 14.2458 10.4429 14.0996 11.2461C13.9534 12.0493 13.5745 12.7919 13.0099 13.3815C12.4453 13.9712 11.7199 14.3821 10.9238 14.563C10.1277 14.744 9.29599 14.6871 8.53196 14.3994C7.76793 14.1117 7.10525 13.6059 6.62623 12.9448C6.1472 12.2837 5.87294 11.4965 5.83751 10.6808L5.83335 10.5L5.83751 10.3192C5.88411 9.24646 6.34302 8.23315 7.11853 7.49055C7.89404 6.74795 8.92629 6.3334 10 6.33333Z" fill="#FFCE22"/>
</svg>